<svg width="188" height="188" viewBox="0 0 188 188" fill="none" xmlns="http://www.w3.org/2000/svg">
<path opacity="0.05" d="M119.053 173.644C131.853 173.644 142.229 167.652 142.229 160.262C142.229 152.871 131.853 146.88 119.053 146.88C106.253 146.88 95.876 152.871 95.876 160.262C95.876 167.652 106.253 173.644 119.053 173.644Z" fill="black"/>
<path opacity="0.05" d="M172.493 116.127C165.97 113.307 155.573 113.307 149.268 116.127C142.962 118.947 142.962 123.515 149.271 126.335C155.581 129.155 165.973 129.155 172.497 126.335C179.021 123.515 179.013 118.947 172.493 116.127Z" fill="black"/>
<path opacity="0.05" d="M133.265 128.076L94.5373 105.727L110.938 96.2553C111.762 95.7778 111.762 95.007 110.938 94.5295L96.3007 86.077C95.8347 85.8402 95.3194 85.7168 94.7967 85.7168C94.274 85.7168 93.7587 85.8402 93.2927 86.077L8.1663 135.235C7.3391 135.713 7.3391 136.487 8.1663 136.961L22.804 145.414C23.267 145.649 23.7791 145.772 24.2986 145.772C24.818 145.772 25.3301 145.649 25.7932 145.414L33.0876 141.221L71.8156 163.559L133.265 128.076Z" fill="black"/>
<path d="M100.942 68.3822L96.689 32.6396L36.6982 67.273L41.0749 103.316C43.8075 125.851 54.6688 146.613 71.6211 161.709L71.8129 161.882L131.804 127.249C114.632 112.086 103.645 91.1303 100.942 68.3822Z" fill="#F5F5F5"/>
<path d="M39.586 67.5096C39.9996 67.2727 40.338 67.4645 40.338 67.942C40.3239 68.2028 40.2485 68.4565 40.1178 68.6826C39.9871 68.9087 39.8049 69.1007 39.586 69.243C39.1686 69.4836 38.834 69.2881 38.834 68.8106C38.848 68.5498 38.9235 68.2961 39.0542 68.07C39.1848 67.844 39.3671 67.6519 39.586 67.5096Z" fill="#37474F"/>
<path d="M37.4726 61.5285C36.6567 61.0548 35.8746 60.9871 35.2692 61.3368C34.6639 61.6865 34.333 62.3971 34.333 63.3409C34.3353 63.6995 34.3794 64.0566 34.4646 64.4049L34.9647 64.1154C34.9129 63.8605 34.8865 63.601 34.8857 63.3409C34.8857 62.5889 35.1226 62.0625 35.5475 61.8143C35.9724 61.5661 36.5552 61.6376 37.1944 62.0061C37.9472 62.4966 38.5738 63.1577 39.0233 63.9358C39.4728 64.7139 39.7325 65.587 39.7812 66.4842C39.7911 66.8417 39.719 67.1966 39.5707 67.522C39.4713 67.7243 39.316 67.8939 39.1232 68.0108L39.0781 68.0333C38.9518 68.2299 38.8709 68.4521 38.8412 68.6838C39.0374 68.6541 39.2261 68.5878 39.3977 68.4883C39.7687 68.2677 40.0458 67.9184 40.176 67.5069C40.2864 67.1775 40.3398 66.8316 40.334 66.4842C40.2796 65.4916 39.9922 64.5256 39.4951 63.6647C38.998 62.8037 38.3051 62.0719 37.4726 61.5285Z" fill="#099FCE"/>
<path d="M43.2403 65.4234C43.6539 65.1827 43.9923 65.3783 43.9923 65.8558C43.9776 66.1164 43.9019 66.3699 43.7713 66.5959C43.6407 66.8219 43.4588 67.014 43.2403 67.1567C42.8229 67.3936 42.4883 67.2019 42.4883 66.7206C42.5023 66.4604 42.5778 66.2071 42.7085 65.9817C42.8392 65.7562 43.0214 65.5649 43.2403 65.4234Z" fill="#37474F"/>
<path d="M41.1162 59.4079C40.3002 58.9379 39.5182 58.8702 38.9128 59.2199C38.3074 59.5696 37.9766 60.2802 37.9766 61.224C37.9788 61.5813 38.023 61.9372 38.1082 62.2843L38.6082 61.9948C38.5577 61.7472 38.5313 61.4954 38.5293 61.2428C38.5293 60.4908 38.7662 59.9606 39.191 59.7162C39.6159 59.4718 40.1987 59.5395 40.8379 59.908C41.591 60.3983 42.2178 61.0593 42.6673 61.8375C43.1168 62.6156 43.3763 63.4888 43.4248 64.3861C43.4373 64.7426 43.3652 65.0969 43.2142 65.4201C43.1138 65.6217 42.9588 65.7911 42.7668 65.9089L42.7217 65.9352C42.5948 66.1315 42.5138 66.3538 42.4848 66.5857C42.6809 66.556 42.8697 66.4897 43.0413 66.3902C43.4126 66.1682 43.6895 65.8176 43.8196 65.4051C43.9296 65.0768 43.983 64.7323 43.9775 64.3861C43.9266 63.3896 43.6408 62.4191 43.1436 61.554C42.6463 60.6889 41.9516 59.9535 41.1162 59.4079Z" fill="#099FCE"/>
<path d="M46.8721 63.3026C47.2857 63.0657 47.6241 63.2575 47.6241 63.735C47.6101 63.9957 47.5346 64.2495 47.4039 64.4755C47.2733 64.7016 47.091 64.8936 46.8721 65.036C46.4548 65.2766 46.1201 65.0811 46.1201 64.6036C46.1342 64.3428 46.2096 64.0891 46.3403 63.863C46.471 63.6369 46.6532 63.4449 46.8721 63.3026Z" fill="#37474F"/>
<path d="M44.7441 57.3205C43.9282 56.8468 43.1461 56.7791 42.5407 57.1288C41.9354 57.4785 41.6045 58.1891 41.6045 59.1329C41.6068 59.4915 41.6509 59.8486 41.7361 60.1969L42.2362 59.9074C42.1844 59.6525 42.158 59.393 42.1572 59.1329C42.1572 58.3809 42.3941 57.8545 42.819 57.6063C43.2439 57.3581 43.8267 57.4296 44.4659 57.7981C45.2187 58.2886 45.8453 58.9497 46.2948 59.7278C46.7443 60.5059 47.0039 61.379 47.0527 62.2762C47.0647 62.6338 46.9926 62.9893 46.8422 63.314C46.7417 63.5156 46.5867 63.6849 46.3947 63.8028L46.3496 63.8253C46.2249 64.0227 46.1441 64.2445 46.1127 64.4758C46.3093 64.448 46.4984 64.3816 46.6692 64.2803C47.0395 64.0589 47.3163 63.7099 47.4475 63.2989C47.5578 62.9695 47.6112 62.6236 47.6055 62.2762C47.551 61.2835 47.2636 60.3176 46.7665 59.4567C46.2694 58.5957 45.5766 57.8639 44.7441 57.3205Z" fill="#099FCE"/>
<path d="M50.5157 61.2007C50.9293 60.9601 51.2677 61.1556 51.2677 61.6331C51.253 61.8937 51.1773 62.1473 51.0467 62.3732C50.9161 62.5992 50.7342 62.7913 50.5157 62.9341C50.1021 63.171 49.7637 62.9792 49.7637 62.4979C49.778 62.2378 49.8536 61.9847 49.9843 61.7592C50.115 61.5338 50.297 61.3425 50.5157 61.2007Z" fill="#37474F"/>
<path d="M48.4033 55.2145C47.5874 54.7445 46.8053 54.6768 46.1999 55.0265C45.5946 55.3762 45.2637 56.0868 45.2637 57.0306C45.2659 57.388 45.3101 57.7438 45.3953 58.0909L45.8954 57.8014C45.8448 57.5539 45.8184 57.302 45.8164 57.0494C45.8164 56.2974 46.0533 55.7672 46.4782 55.5228C46.903 55.2784 47.4896 55.3461 48.125 55.7146C48.8737 56.2016 49.4977 56.8573 49.947 57.6291C50.3962 58.401 50.6582 59.2674 50.7119 60.1589C50.7245 60.5154 50.6523 60.8697 50.5014 61.1929C50.4009 61.3945 50.2459 61.5639 50.0539 61.6817L50.0088 61.708C49.8835 61.9051 49.8026 62.127 49.7719 62.3585C49.968 62.3288 50.1568 62.2625 50.3284 62.163C50.6997 61.941 50.9766 61.5904 51.1067 61.1779C51.2167 60.8496 51.2701 60.5051 51.2646 60.1589C51.2085 59.1682 50.9203 58.2045 50.4232 57.3457C49.9262 56.4868 49.2343 55.7568 48.4033 55.2145Z" fill="#099FCE"/>
<path d="M54.1446 59.0956C54.5582 58.8587 54.8966 59.0504 54.8966 59.528C54.8825 59.7887 54.8071 60.0424 54.6764 60.2685C54.5457 60.4946 54.3635 60.6866 54.1446 60.8289C53.731 61.0696 53.3926 60.874 53.3926 60.3965C53.4075 60.136 53.4833 59.8826 53.6139 59.6567C53.7445 59.4307 53.9263 59.2385 54.1446 59.0956Z" fill="#37474F"/>
<path d="M52.0458 53.1135C51.2299 52.6397 50.4478 52.5721 49.8425 52.9217C49.2371 53.2714 48.9062 53.9821 48.9062 54.9258C48.9085 55.2844 48.9527 55.6415 49.0378 55.9899L49.5379 55.7004C49.4874 55.4453 49.4622 55.1859 49.4627 54.9258C49.4627 54.1738 49.6958 53.6474 50.1207 53.3993C50.5456 53.1511 51.1322 53.2225 51.7714 53.591C52.5231 54.0824 53.1487 54.7438 53.5974 55.5218C54.0462 56.2998 54.3055 57.1724 54.3545 58.0692C54.3665 58.4268 54.2944 58.7823 54.1439 59.1069C54.0435 59.3085 53.8884 59.4779 53.6965 59.5957L53.6514 59.6183C53.5282 59.8164 53.4476 60.0379 53.4145 60.2688C53.6111 60.241 53.8002 60.1745 53.971 60.0733C54.3413 59.8519 54.6181 59.5029 54.7493 59.0919C54.8596 58.7624 54.913 58.4166 54.9072 58.0692C54.8528 57.0765 54.5654 56.1106 54.0683 55.2497C53.5712 54.3887 52.8783 53.6569 52.0458 53.1135Z" fill="#099FCE"/>
<path d="M57.8028 56.9937C58.2164 56.7531 58.5548 56.9486 58.5548 57.4261C58.5401 57.6867 58.4644 57.9402 58.3338 58.1662C58.2032 58.3922 58.0213 58.5843 57.8028 58.7271C57.3892 58.9639 57.0508 58.7722 57.0508 58.2909C57.0651 58.0307 57.1407 57.7776 57.2714 57.5522C57.4021 57.3268 57.5841 57.1354 57.8028 56.9937Z" fill="#37474F"/>
<path d="M55.6894 51.0075C54.8735 50.5375 54.0914 50.4698 53.486 50.8195C52.8807 51.1692 52.5498 51.8798 52.5498 52.8198C52.5537 53.1783 52.5979 53.5352 52.6814 53.8839L53.1815 53.5944C53.1308 53.3393 53.1056 53.0798 53.1063 52.8198C53.1063 52.0678 53.3394 51.5414 53.7643 51.3158C54.1892 51.0902 54.7757 51.1391 55.4149 51.5076C56.1671 51.9985 56.793 52.6598 57.2418 53.4379C57.6906 54.2159 57.9497 55.0888 57.998 55.9857C58.0097 56.3421 57.9376 56.6963 57.7875 57.0197C57.687 57.2213 57.532 57.3907 57.34 57.5085L57.2949 57.5348C57.1713 57.7327 57.0906 57.9543 57.058 58.1853C57.2552 58.1549 57.4451 58.0887 57.6183 57.9898C57.9884 57.7673 58.264 57.4168 58.3928 57.0047C58.5042 56.6767 58.5589 56.3321 58.5545 55.9857C58.5029 54.9889 58.2164 54.0184 57.7185 53.1533C57.2206 52.2881 56.5254 51.5529 55.6894 51.0075Z" fill="#099FCE"/>
<path d="M61.4463 54.8954C61.8599 54.6585 62.1983 54.8502 62.1983 55.3278C62.1843 55.5885 62.1088 55.8423 61.9782 56.0683C61.8475 56.2944 61.6653 56.4864 61.4463 56.6287C61.0327 56.8694 60.6943 56.6739 60.6943 56.1963C60.7093 55.9358 60.7851 55.6824 60.9157 55.4565C61.0463 55.2305 61.228 55.0384 61.4463 54.8954Z" fill="#37474F"/>
<path d="M59.333 48.9055C58.517 48.4317 57.735 48.3641 57.1296 48.7137C56.5242 49.0634 56.1934 49.7741 56.1934 50.7178C56.1975 51.0763 56.2416 51.4332 56.325 51.7819L56.825 51.4924C56.7764 51.237 56.7512 50.9778 56.7498 50.7178C56.7498 49.9658 56.983 49.4394 57.4078 49.1913C57.8327 48.9431 58.4193 49.0145 59.0585 49.383C59.8102 49.8744 60.4358 50.5358 60.8845 51.3138C61.3333 52.0917 61.5926 52.9644 61.6416 53.8612C61.6536 54.2188 61.5815 54.5743 61.431 54.8989C61.3306 55.1005 61.1756 55.2699 60.9836 55.3877L60.9385 55.4103C60.8148 55.6081 60.7341 55.8298 60.7016 56.0608C60.8992 56.0321 61.0894 55.9657 61.2618 55.8653C61.6303 55.6469 61.9068 55.3022 62.0402 54.8952C62.1518 54.5659 62.2065 54.2201 62.2018 53.8725C62.148 52.8772 61.8602 51.9088 61.3617 51.0457C60.8632 50.1827 60.1681 49.4494 59.333 48.9055Z" fill="#099FCE"/>
<path d="M65.0899 52.7857C65.5035 52.5451 65.8419 52.7406 65.8419 53.2181C65.8272 53.4787 65.7516 53.7322 65.6209 53.9582C65.4903 54.1842 65.3084 54.3763 65.0899 54.5191C64.6763 54.7559 64.3379 54.5642 64.3379 54.0829C64.3522 53.8227 64.4278 53.5696 64.5585 53.3442C64.6892 53.1188 64.8712 52.9274 65.0899 52.7857Z" fill="#37474F"/>
<path d="M62.9765 46.8005C62.1606 46.3305 61.3785 46.2628 60.7732 46.6125C60.1678 46.9621 59.8369 47.669 59.8369 48.6128C59.8408 48.9713 59.885 49.3282 59.9685 49.6768L60.4686 49.3873C60.4197 49.132 60.3945 48.8727 60.3934 48.6128C60.3934 47.8608 60.6265 47.3344 61.0514 47.1088C61.4763 46.8832 62.0628 46.9321 62.702 47.3005C63.4542 47.7915 64.0801 48.4528 64.5289 49.2308C64.9777 50.0089 65.2368 50.8818 65.2852 51.7787C65.2968 52.1351 65.2247 52.4893 65.0746 52.8127C64.9764 53.0159 64.8209 53.1858 64.6272 53.3015L64.582 53.3278C64.4584 53.5257 64.3777 53.7473 64.3452 53.9783C64.5423 53.9479 64.7322 53.8816 64.9054 53.7828C65.2748 53.5595 65.5501 53.2093 65.68 52.7976C65.7913 52.4696 65.846 52.1251 65.8416 51.7787C65.79 50.7819 65.5035 49.8113 65.0056 48.9462C64.5077 48.0811 63.8125 47.3459 62.9765 46.8005Z" fill="#099FCE"/>
<path d="M68.7334 50.6805C69.147 50.4436 69.4854 50.6354 69.4854 51.1129C69.4714 51.3737 69.3959 51.6274 69.2653 51.8535C69.1346 52.0796 68.9524 52.2716 68.7334 52.4139C68.3198 52.6545 67.9814 52.459 67.9814 51.9815C67.9964 51.721 68.0722 51.4676 68.2028 51.2416C68.3334 51.0157 68.5151 50.8235 68.7334 50.6805Z" fill="#37474F"/>
<path d="M66.6201 44.6985C65.8041 44.2247 65.0221 44.157 64.4167 44.5067C63.8114 44.8564 63.4805 45.567 63.4805 46.5108C63.4846 46.8693 63.5287 47.2262 63.6121 47.5749L64.1121 47.2853C64.0635 47.03 64.0383 46.7707 64.0369 46.5108C64.0369 45.7588 64.2701 45.2324 64.6949 44.9842C65.1198 44.7361 65.7064 44.8075 66.3456 45.176C67.0973 45.6674 67.7229 46.3288 68.1716 47.1067C68.6204 47.8847 68.8797 48.7574 68.9287 49.6541C68.9413 50.0106 68.8691 50.365 68.7181 50.6881C68.619 50.8916 68.4637 51.0625 68.2707 51.1807L68.2256 51.2033C68.1019 51.4011 68.0212 51.6227 67.9887 51.8537C68.1863 51.8251 68.3765 51.7587 68.5489 51.6582C68.9181 51.4364 69.1935 51.0874 69.3235 50.6769C69.4352 50.3476 69.4898 50.0018 69.4852 49.6541C69.4301 48.6612 69.142 47.6952 68.6442 46.8343C68.1465 45.9733 67.4531 45.2417 66.6201 44.6985Z" fill="#099FCE"/>
<path d="M72.377 48.5787C72.7906 48.338 73.129 48.5335 73.129 49.0111C73.1144 49.2717 73.0387 49.5252 72.908 49.7512C72.7774 49.9771 72.5955 50.1693 72.377 50.312C71.9634 50.5489 71.625 50.3571 71.625 49.8759C71.639 49.6156 71.7145 49.3624 71.8452 49.1369C71.9759 48.9115 72.1581 48.7202 72.377 48.5787Z" fill="#37474F"/>
<path d="M70.2636 42.5924C69.4477 42.1224 68.6656 42.0548 68.0603 42.4044C67.4549 42.7541 67.124 43.461 67.124 44.4048C67.1279 44.7633 67.1721 45.1202 67.2556 45.4688L67.7557 45.1793C67.7068 44.924 67.6817 44.6647 67.6805 44.4048C67.6805 43.6528 67.9136 43.1264 68.3385 42.9008C68.7634 42.6752 69.3499 42.724 69.9891 43.0925C70.7381 43.582 71.3618 44.2406 71.8098 45.0151C72.2578 45.7896 72.5177 46.6586 72.5685 47.5519C72.5802 47.9083 72.5081 48.2624 72.3579 48.5859C72.2575 48.7875 72.1025 48.9568 71.9105 49.0747L71.8654 49.101C71.7417 49.2988 71.661 49.5205 71.6285 49.7515C71.8256 49.7211 72.0155 49.6548 72.1887 49.556C72.5589 49.3326 72.8354 48.9826 72.9671 48.5708C73.0753 48.2422 73.1286 47.8979 73.125 47.5519C73.0708 46.5586 72.7836 45.5921 72.2865 44.7305C71.7894 43.8689 71.0964 43.1364 70.2636 42.5924Z" fill="#099FCE"/>
<path d="M76.0206 46.4735C76.4342 46.2366 76.7726 46.4284 76.7726 46.9059C76.7585 47.1666 76.6831 47.4204 76.5524 47.6464C76.4217 47.8725 76.2395 48.0645 76.0206 48.2069C75.607 48.4475 75.2686 48.252 75.2686 47.7745C75.2832 47.5139 75.3589 47.2603 75.4895 47.0344C75.6201 46.8084 75.802 46.6163 76.0206 46.4735Z" fill="#37474F"/>
<path d="M73.9072 40.4905C73.0913 40.0167 72.3092 39.949 71.7076 40.2987C71.106 40.6484 70.7676 41.359 70.7676 42.3028C70.7717 42.6613 70.8158 43.0182 70.8992 43.3669L71.3993 43.0773C71.3506 42.822 71.3254 42.5627 71.3241 42.3028C71.3241 41.5508 71.5572 41.0244 71.9821 40.7762C72.4069 40.5281 72.9935 40.5995 73.6327 40.968C74.3845 41.4594 75.01 42.1208 75.4588 42.8987C75.9075 43.6767 76.1668 44.5494 76.2158 45.4461C76.2284 45.8026 76.1562 46.157 76.0053 46.4801C75.9071 46.6843 75.7517 46.8555 75.5578 46.9727L75.5127 46.9953C75.3891 47.1931 75.3083 47.4147 75.2758 47.6457C75.4729 47.6153 75.6628 47.5491 75.8361 47.4502C76.2064 47.2288 76.4831 46.8799 76.6144 46.4689C76.7247 46.1394 76.7781 45.7935 76.7723 45.4461C76.7172 44.4532 76.4291 43.4872 75.9313 42.6263C75.4336 41.7653 74.7402 41.0337 73.9072 40.4905Z" fill="#099FCE"/>
<path d="M79.6602 44.3677C80.0738 44.1271 80.4122 44.3226 80.4122 44.8001C80.3976 45.0607 80.3219 45.3142 80.1912 45.5402C80.0606 45.7662 79.8787 45.9583 79.6602 46.1011C79.2466 46.338 78.9082 46.1462 78.9082 45.6687C78.9223 45.4079 78.9977 45.1542 79.1284 44.9281C79.2591 44.7021 79.4413 44.51 79.6602 44.3677Z" fill="#37474F"/>
<path d="M77.5468 38.3854C76.7309 37.9154 75.9488 37.8477 75.3435 38.1974C74.7381 38.5471 74.4072 39.2577 74.4072 40.2015C74.4116 40.56 74.4557 40.9168 74.5388 41.2656L75.0389 40.9761C74.9902 40.7207 74.965 40.4614 74.9637 40.2015C74.9637 39.4495 75.1968 38.9193 75.6217 38.6749C76.0466 38.4305 76.6331 38.4982 77.2723 38.8667C78.0241 39.3581 78.6497 40.0195 79.0984 40.7975C79.5472 41.5754 79.8065 42.4481 79.8555 43.3449C79.868 43.7013 79.7959 44.0557 79.6449 44.3789C79.5455 44.5812 79.3902 44.7508 79.1975 44.8677L79.1523 44.894C79.0287 45.0918 78.948 45.3134 78.9155 45.5445C79.1126 45.5141 79.3025 45.4478 79.4757 45.3489C79.8458 45.1256 80.1224 44.7756 80.254 44.3638C80.3625 44.0352 80.4159 43.6909 80.4119 43.3449C80.3568 42.3514 80.0687 41.3849 79.571 40.5233C79.0733 39.6618 78.3799 38.9294 77.5468 38.3854Z" fill="#099FCE"/>
<path d="M83.3038 42.2654C83.7174 42.0285 84.0558 42.2203 84.0558 42.7016C84.0417 42.9618 83.9663 43.215 83.8355 43.4405C83.7048 43.6659 83.5226 43.8572 83.3038 43.9988C82.8902 44.2394 82.5518 44.0439 82.5518 43.5664C82.5664 43.3058 82.6421 43.0522 82.7727 42.8263C82.9033 42.6003 83.0852 42.4082 83.3038 42.2654Z" fill="#37474F"/>
<path d="M81.1905 36.2832C80.3746 35.8132 79.5925 35.7418 78.9909 36.0915C78.3893 36.4412 78.0547 37.1518 78.0547 38.0956C78.0573 38.4539 78.1001 38.8109 78.1825 39.1596L78.6826 38.8701C78.6339 38.6148 78.6087 38.3555 78.6074 38.0956C78.6074 37.3436 78.8405 36.8172 79.2654 36.569C79.6903 36.3208 80.2768 36.3923 80.916 36.7645C81.6682 37.2555 82.2941 37.9168 82.7429 38.6948C83.1917 39.4729 83.4508 40.3458 83.4992 41.2427C83.5109 41.5991 83.4387 41.9532 83.2886 42.2767C83.1904 42.4798 83.0349 42.6498 82.8412 42.7655L82.796 42.788C82.6723 42.9872 82.5916 43.2101 82.5592 43.4423C82.7559 43.4102 82.9454 43.344 83.1194 43.2468C83.4897 43.0237 83.7664 42.6736 83.8977 42.2616C84.0078 41.9334 84.0612 41.5888 84.0556 41.2427C84.0011 40.2491 83.7133 39.2823 83.2155 38.4207C82.7177 37.5591 82.024 36.8268 81.1905 36.2832Z" fill="#099FCE"/>
<path d="M86.9463 40.1636C87.3599 39.923 87.6983 40.1185 87.6983 40.596C87.6834 40.8566 87.6076 41.11 87.477 41.3359C87.3464 41.5618 87.1646 41.754 86.9463 41.897C86.5327 42.1339 86.1943 41.9421 86.1943 41.4646C86.2084 41.2038 86.2838 40.9501 86.4145 40.724C86.5452 40.498 86.7274 40.3059 86.9463 40.1636Z" fill="#37474F"/>
<path d="M84.8369 34.1784C84.0172 33.7084 83.2351 33.6407 82.6335 33.9904C82.0319 34.3401 81.6973 35.0507 81.6973 35.9945C81.7003 36.3528 81.7432 36.7097 81.8251 37.0585L82.3289 36.7653C82.2784 36.5177 82.252 36.2659 82.25 36.0133C82.25 35.2613 82.4831 34.7311 82.908 34.4867C83.3329 34.2423 83.9194 34.31 84.5586 34.6785C85.3109 35.1696 85.937 35.8309 86.3864 36.6089C86.8358 37.3868 87.0958 38.2596 87.1455 39.1566C87.1557 39.5129 87.0836 39.8667 86.9349 40.1906C86.8331 40.3925 86.6768 40.5618 86.4837 40.6794L86.4386 40.7057C86.3144 40.903 86.2348 41.125 86.2055 41.3562C86.4013 41.3252 86.5898 41.259 86.762 41.1607C87.1321 40.9373 87.4086 40.5873 87.5403 40.1756C87.6488 39.847 87.7022 39.5027 87.6982 39.1566C87.6464 38.1603 87.3603 37.1902 86.8631 36.3252C86.3659 35.4602 85.6717 34.7247 84.8369 34.1784Z" fill="#099FCE"/>
<path d="M90.5899 38.0584C91.0035 37.8215 91.3419 38.0132 91.3419 38.4945C91.3276 38.7547 91.252 39.0078 91.1213 39.2332C90.9906 39.4586 90.8085 39.65 90.5899 39.7917C90.1763 40.0324 89.8379 39.8368 89.8379 39.3593C89.8525 39.0987 89.9282 38.8452 90.0589 38.6192C90.1895 38.3932 90.3714 38.2011 90.5899 38.0584Z" fill="#37474F"/>
<path d="M88.4809 32.0762C87.6649 31.6062 86.8791 31.5348 86.2775 31.8845C85.6759 32.2341 85.3525 32.9448 85.3525 33.8885C85.3551 34.2469 85.398 34.6038 85.4804 34.9526L85.9842 34.6631C85.9325 34.4081 85.906 34.1487 85.9053 33.8885C85.9053 33.1365 86.1384 32.6101 86.5633 32.362C86.9881 32.1138 87.5747 32.1852 88.2139 32.5575C88.9666 33.0482 89.593 33.7094 90.0424 34.4875C90.4919 35.2655 90.7517 36.1385 90.8008 37.0357C90.8105 37.3919 90.7385 37.7456 90.5902 38.0697C90.4873 38.2707 90.3312 38.4398 90.139 38.5585L90.0939 38.581C89.9697 38.7796 89.8902 39.0029 89.8608 39.2352C90.0561 39.2026 90.2444 39.1364 90.4173 39.0397C90.7876 38.8166 91.0642 38.4665 91.1956 38.0546C91.3038 37.7259 91.3572 37.3817 91.3535 37.0357C91.2984 36.0413 91.0096 35.074 90.5104 34.2123C90.0113 33.3506 89.316 32.6187 88.4809 32.0762Z" fill="#099FCE"/>
<path d="M94.2334 35.9566C94.647 35.7159 94.9854 35.9115 94.9854 36.389C94.9705 36.6495 94.8947 36.9029 94.7641 37.1289C94.6335 37.3548 94.4518 37.547 94.2334 37.6899C93.8198 37.9268 93.4814 37.7351 93.4814 37.2575C93.4955 36.9968 93.5709 36.7431 93.7016 36.517C93.8323 36.2909 94.0145 36.0989 94.2334 35.9566Z" fill="#37474F"/>
<path d="M92.1201 29.9704C91.3042 29.5004 90.5183 29.4327 89.9167 29.7824C89.3151 30.1321 88.9805 30.8427 88.9805 31.7865C88.983 32.145 89.0271 32.5021 89.1121 32.8505L89.6122 32.5573C89.5616 32.3097 89.5352 32.0579 89.5332 31.8053C89.5332 31.0533 89.7663 30.5231 90.1912 30.2787C90.6161 30.0343 91.2026 30.102 91.8418 30.4705C92.5941 30.9616 93.2202 31.6229 93.6696 32.4009C94.119 33.1788 94.379 34.0516 94.4287 34.9486C94.4389 35.3049 94.3668 35.6587 94.2182 35.9826C94.1174 36.1852 93.9608 36.3548 93.767 36.4714L93.7218 36.4977C93.5976 36.695 93.518 36.917 93.4887 37.1482C93.6845 37.1172 93.873 37.051 94.0452 36.9527C94.4165 36.7307 94.6934 36.3801 94.8235 35.9676C94.9338 35.6394 94.9872 35.2948 94.9814 34.9486C94.9305 33.9521 94.6448 32.9816 94.1475 32.1165C93.6502 31.2514 92.9555 30.516 92.1201 29.9704Z" fill="#099FCE"/>
<path opacity="0.4" d="M92.1209 29.9704C91.305 29.5004 90.5191 29.4327 89.9175 29.7824C89.3159 30.1321 88.9813 30.8427 88.9813 31.7865C88.983 32.0146 89.0031 32.2422 89.0415 32.467C88.8624 32.3288 88.6739 32.2031 88.4775 32.091C87.6578 31.621 86.8757 31.5496 86.2741 31.8993C85.6725 32.2489 85.3529 32.9445 85.3529 33.8883C85.3547 34.1176 85.3749 34.3465 85.4131 34.5726C85.2347 34.4333 85.0462 34.3076 84.8491 34.1966C84.0294 33.7266 83.2473 33.6589 82.6457 34.0086C82.0441 34.3583 81.7094 35.0689 81.7094 36.0127C81.7111 36.2408 81.7313 36.4684 81.7696 36.6933C81.5898 36.5541 81.4001 36.4285 81.2019 36.3173C80.3859 35.8473 79.6039 35.7758 79.0023 36.1255C78.4007 36.4752 78.066 37.1858 78.066 38.1296C78.0679 38.3589 78.088 38.5877 78.1262 38.8139C77.9472 38.6737 77.7574 38.5479 77.5584 38.4379C76.7425 37.9679 75.9604 37.9002 75.3551 38.2499C74.7497 38.5996 74.4188 39.3102 74.4188 40.254C74.422 40.4809 74.4433 40.7072 74.4827 40.9308C74.3052 40.7904 74.1166 40.6646 73.9187 40.5548C73.1028 40.081 72.3207 40.0133 71.7191 40.363C71.1175 40.7127 70.7791 41.4233 70.7791 42.3671C70.7821 42.5953 70.8035 42.8229 70.8431 43.0477C70.6633 42.9086 70.4735 42.7829 70.2753 42.6717C69.4594 42.2017 68.6773 42.134 68.0719 42.4837C67.4666 42.8333 67.1357 43.5402 67.1357 44.484C67.1388 44.7134 67.1602 44.9422 67.1996 45.1683C67.0216 45.0267 66.8316 44.9009 66.6319 44.7923C65.8159 44.3185 65.0339 44.2509 64.4285 44.6005C63.8231 44.9502 63.4922 45.6609 63.4922 46.6046C63.4952 46.8328 63.5166 47.0604 63.5562 47.2852C63.3764 47.1461 63.1866 47.0204 62.9884 46.9092C62.1725 46.4392 61.3904 46.3715 60.7851 46.7212C60.1797 47.0709 59.8488 47.7777 59.8488 48.7215C59.8518 48.9509 59.8732 49.1798 59.9127 49.4058C59.7338 49.2655 59.544 49.1397 59.345 49.0298C58.529 48.5561 57.747 48.4884 57.1416 48.8381C56.5362 49.1877 56.2054 49.8984 56.2054 50.8421C56.2083 51.0703 56.2297 51.2979 56.2693 51.5227C56.0895 51.3836 55.8998 51.2579 55.7015 51.1467C54.8856 50.6767 54.1035 50.609 53.4982 50.9587C52.8928 51.3084 52.5619 52.019 52.5619 52.959C52.5649 53.1885 52.5863 53.4173 52.6259 53.6433C52.447 53.503 52.2571 53.3773 52.0581 53.2673C51.2422 52.7936 50.4601 52.7259 49.8547 53.0756C49.2494 53.4253 48.9185 54.1359 48.9185 55.0797C48.9215 55.3079 48.9428 55.5354 48.9824 55.7602C48.8026 55.6211 48.6129 55.4954 48.4146 55.3842C47.5987 54.9142 46.8166 54.8465 46.2113 55.1962C45.6059 55.5459 45.2751 56.2565 45.2751 57.2003C45.2782 57.4285 45.2996 57.6561 45.339 57.8809C45.1601 57.7405 44.9702 57.6148 44.7712 57.5049C43.9553 57.0311 43.1732 56.9634 42.5678 57.3131C41.9625 57.6628 41.6316 58.3734 41.6316 59.3172C41.6346 59.5454 41.656 59.773 41.6955 59.9977C41.5158 59.8586 41.326 59.733 41.1278 59.6217C40.3118 59.1517 39.5298 59.0841 38.9244 59.4337C38.319 59.7834 37.9882 60.4941 37.9882 61.4378C37.9913 61.666 38.0127 61.8936 38.0521 62.1184C37.8732 61.978 37.6833 61.8523 37.4843 61.7424C36.6684 61.2686 35.8863 61.2009 35.281 61.5506C34.6756 61.9003 34.3447 62.6109 34.3447 63.5547C34.347 63.9133 34.3912 64.2704 34.4763 64.6188L34.9764 64.3293C34.9247 64.0743 34.8982 63.8148 34.8974 63.5547C34.8974 62.8027 35.1343 62.2763 35.5592 62.0281C35.9841 61.78 36.5669 61.8514 37.2061 62.2199C37.959 62.7104 38.5856 63.3716 39.035 64.1496C39.4845 64.9277 39.7442 65.8008 39.793 66.6981C39.8028 67.0555 39.7308 67.4105 39.5824 67.7358C39.483 67.9381 39.3277 68.1077 39.135 68.2246L39.0898 68.2472C38.9635 68.4437 38.8826 68.6659 38.853 68.8977C39.0491 68.8679 39.2378 68.8016 39.4094 68.7021C39.7805 68.4815 40.0575 68.1323 40.1878 67.7208C40.2981 67.3913 40.3515 67.0455 40.3457 66.6981C40.3457 65.2204 39.5034 63.4795 38.3416 62.3853L38.6198 62.2237C38.5693 61.9761 38.5429 61.7243 38.5409 61.4717C38.5409 60.7197 38.7778 60.1895 39.2026 59.9451C39.6275 59.7007 40.2103 59.7684 40.8495 60.1369C41.6026 60.6272 42.2294 61.2882 42.6789 62.0664C43.1284 62.8445 43.3879 63.7177 43.4364 64.615C43.4489 64.9715 43.3768 65.3258 43.2258 65.649C43.1254 65.8506 42.9704 66.02 42.7784 66.1378L42.7333 66.1641C42.6064 66.3604 42.5254 66.5827 42.4964 66.8146C42.6925 66.7849 42.8813 66.7186 43.0529 66.6191C43.4242 66.3971 43.7011 66.0465 43.8312 65.634C43.9412 65.3057 43.9946 64.9612 43.9891 64.615C43.9891 63.1373 43.1469 61.3927 41.985 60.3023L42.2633 60.1406C42.2115 59.8857 42.1851 59.6262 42.1843 59.3661C42.1843 58.6141 42.4212 58.0877 42.8461 57.8395C43.271 57.5913 43.8538 57.6628 44.493 58.0313C45.2458 58.5218 45.8724 59.1829 46.3219 59.961C46.7714 60.7391 47.0311 61.6122 47.0798 62.5094C47.0918 62.867 47.0197 63.2225 46.8693 63.5472C46.7688 63.7488 46.6138 63.9181 46.4218 64.036L46.3767 64.0585C46.2514 64.2556 46.1706 64.4775 46.1398 64.709C46.3364 64.6812 46.5256 64.6148 46.6963 64.5135C47.0667 64.2921 47.3434 63.9431 47.4746 63.5321C47.585 63.2027 47.6384 62.8568 47.6326 62.5094C47.6326 61.0317 46.7903 59.2909 45.6285 58.1967L45.9067 58.035C45.8562 57.7875 45.8298 57.5356 45.8278 57.283C45.8278 56.531 46.0646 56.0009 46.4895 55.7565C46.9144 55.5121 47.501 55.5797 48.1364 55.9482C48.8533 56.4128 49.4569 57.0324 49.9027 57.7612C50.3484 58.49 50.625 59.3095 50.712 60.1594C50.7245 60.5159 50.6524 60.8702 50.5014 61.1934C50.401 61.395 50.246 61.5644 50.054 61.6822L50.0089 61.7085C49.8836 61.9056 49.8027 62.1275 49.772 62.359C49.9681 62.3293 50.1569 62.263 50.3285 62.1635C50.6998 61.9415 50.9767 61.5909 51.1068 61.1784C51.2168 60.8501 51.2702 60.5056 51.2647 60.1594C51.2647 58.6817 50.4225 56.9371 49.2606 55.8467L49.5389 55.685C49.4884 55.4299 49.4632 55.1705 49.4637 54.9105C49.4637 54.1585 49.6968 53.6321 50.1217 53.3839C50.5466 53.1357 51.1331 53.2072 51.7686 53.5757C52.5214 54.0662 53.148 54.7273 53.5975 55.5054C54.047 56.2835 54.3067 57.1566 54.3554 58.0538C54.3674 58.4114 54.2953 58.7669 54.1449 59.0916C54.0444 59.2932 53.8894 59.4625 53.6974 59.5804L53.6523 59.6029C53.5287 59.8008 53.448 60.0224 53.4154 60.2534C53.613 60.2248 53.8032 60.1584 53.9757 60.0579C54.3439 59.835 54.619 59.4864 54.7502 59.0765C54.8619 58.7473 54.9166 58.4014 54.9119 58.0538C54.9119 56.5761 54.0659 54.8353 52.9041 53.7411L53.1823 53.5794C53.1316 53.3244 53.1064 53.0649 53.1071 52.8049C53.1071 52.0529 53.3403 51.5265 53.7651 51.3009C54.19 51.0753 54.7766 51.1241 55.4158 51.4926C56.1679 51.9836 56.7938 52.6449 57.2426 53.4229C57.6914 54.201 57.9505 55.0739 57.9989 55.9708C58.0106 56.3272 57.9385 56.6813 57.7883 57.0048C57.6879 57.2064 57.5328 57.3757 57.3409 57.4936L57.2958 57.5199C57.1721 57.7177 57.0914 57.9394 57.0589 58.1704C57.256 58.14 57.4459 58.0737 57.6191 57.9749C57.9892 57.7524 58.2648 57.4019 58.3937 56.9897C58.5051 56.6617 58.5597 56.3171 58.5554 55.9708C58.5554 54.4931 57.7094 52.7485 56.5475 51.6581L56.8258 51.4964C56.7771 51.241 56.7519 50.9818 56.7506 50.7218C56.7506 49.9698 56.9837 49.4434 57.4086 49.1953C57.8334 48.9471 58.42 49.0185 59.0592 49.387C59.811 49.8784 60.4365 50.5398 60.8853 51.3178C61.334 52.0957 61.5934 52.9684 61.6423 53.8652C61.6543 54.2228 61.5822 54.5783 61.4318 54.9029C61.3313 55.1045 61.1763 55.2739 60.9843 55.3917L60.9392 55.4143C60.8156 55.6121 60.7349 55.8338 60.7023 56.0648C60.8999 56.0361 61.0901 55.9697 61.2626 55.8693C61.6317 55.65 61.9084 55.3038 62.0409 54.8954C62.1525 54.5662 62.2072 54.2203 62.2026 53.8727C62.2026 52.395 61.3566 50.6541 60.1947 49.56L60.473 49.3983C60.4241 49.143 60.3989 48.8837 60.3978 48.6237C60.3978 47.8717 60.6309 47.3453 61.0558 47.1197C61.4807 46.8941 62.0672 46.943 62.7064 47.3115C63.4586 47.8024 64.0845 48.4638 64.5333 49.2418C64.9821 50.0199 65.2412 50.8927 65.2895 51.7897C65.3012 52.1461 65.2291 52.5002 65.079 52.8237C64.9808 53.0268 64.8252 53.1968 64.6315 53.3125L64.5864 53.3388C64.4628 53.5366 64.3821 53.7582 64.3495 53.9893C64.5467 53.9589 64.7365 53.8926 64.9098 53.7937C65.2792 53.5705 65.5545 53.2202 65.6843 52.8086C65.7957 52.4806 65.8504 52.136 65.846 51.7897C65.846 50.312 65 48.5673 63.8382 47.4769L64.1164 47.3153C64.0677 47.0599 64.0426 46.8006 64.0412 46.5407C64.0412 45.7887 64.2743 45.2623 64.6992 45.0141C65.1241 44.766 65.7107 44.8374 66.3499 45.2059C67.1016 45.6973 67.7272 46.3587 68.1759 47.1367C68.6247 47.9146 68.884 48.7873 68.933 49.6841C68.9455 50.0405 68.8734 50.3949 68.7224 50.7181C68.6232 50.9215 68.468 51.0924 68.275 51.2106L68.2299 51.2332C68.1062 51.431 68.0255 51.6526 67.993 51.8837C68.1905 51.855 68.3807 51.7886 68.5532 51.6881C68.9223 51.4663 69.1978 51.1173 69.3278 50.7068C69.4394 50.3775 69.4941 50.0317 69.4894 49.6841C69.4894 48.2064 68.6435 46.4655 67.4816 45.3713L67.7599 45.2097C67.711 44.9543 67.6858 44.695 67.6846 44.4351C67.6846 43.6831 67.9178 43.1567 68.3426 42.9311C68.7675 42.7055 69.3541 42.7544 69.9933 43.1229C70.7377 43.6098 71.3581 44.2638 71.8053 45.0327C72.2524 45.8016 72.5139 46.6643 72.5689 47.5521C72.5806 47.9085 72.5085 48.2627 72.3583 48.5861C72.2579 48.7877 72.1028 48.9571 71.9109 49.0749L71.8658 49.1013C71.7421 49.2991 71.6614 49.5207 71.6289 49.7517C71.826 49.7213 72.0159 49.6551 72.1891 49.5562C72.5592 49.3329 72.8358 48.9828 72.9674 48.5711C73.0757 48.2424 73.129 47.8982 73.1254 47.5521C73.1254 46.0745 72.2794 44.3298 71.1175 43.2394L71.3958 43.0777C71.3471 42.8224 71.3219 42.5631 71.3206 42.3032C71.3206 41.5512 71.5537 41.0248 71.9786 40.7766C72.4034 40.5285 72.99 40.5999 73.6292 40.9684C74.381 41.4598 75.0065 42.1212 75.4553 42.8991C75.904 43.6771 76.1634 44.5498 76.2123 45.4465C76.2249 45.803 76.1527 46.1574 76.0018 46.4805C75.9037 46.6847 75.7482 46.8559 75.5543 46.9731L75.5092 46.9957C75.3856 47.1935 75.3049 47.4151 75.2723 47.6461C75.4695 47.6157 75.6593 47.5495 75.8326 47.4506C76.2029 47.2292 76.4797 46.8803 76.6109 46.4693C76.7212 46.1398 76.7746 45.7939 76.7688 45.4465C76.7688 43.9689 75.9228 42.2242 74.761 41.1338L75.0354 40.9759C74.9868 40.7205 74.9616 40.4613 74.9603 40.2013C74.9603 39.4493 75.1934 38.9192 75.6183 38.6748C76.0431 38.4304 76.6297 38.4981 77.2689 38.8665C78.0206 39.3579 78.6462 40.0193 79.0949 40.7973C79.5437 41.5753 79.803 42.4479 79.852 43.3447C79.8645 43.7012 79.7924 44.0555 79.6414 44.3787C79.542 44.581 79.3868 44.7506 79.194 44.8675L79.1489 44.8938C79.0252 45.0917 78.9445 45.3133 78.912 45.5443C79.1091 45.5139 79.299 45.4476 79.4723 45.3488C79.8424 45.1254 80.1189 44.7754 80.2506 44.3637C80.3591 44.035 80.4124 43.6907 80.4085 43.3447C80.4085 41.867 79.5625 40.1224 78.4006 39.032L78.6789 38.8703C78.6302 38.6149 78.605 38.3557 78.6037 38.0957C78.6037 37.3437 78.8368 36.8173 79.2617 36.5692C79.6866 36.321 80.2731 36.3925 80.9123 36.7647C81.6645 37.2556 82.2904 37.917 82.7392 38.695C83.188 39.4731 83.4471 40.3459 83.4954 41.2429C83.5071 41.5992 83.435 41.9534 83.2849 42.2769C83.1867 42.48 83.0312 42.65 82.8374 42.7657L82.7923 42.7882C82.6686 42.9874 82.5879 43.2102 82.5555 43.4425C82.7521 43.4103 82.9417 43.3442 83.1157 43.2469C83.486 43.0238 83.7626 42.6737 83.894 42.2618C84.004 41.9336 84.0574 41.589 84.0519 41.2429C84.0519 39.7614 83.2059 38.0205 82.0441 36.9301L82.3261 36.7647C82.2756 36.5172 82.2491 36.2653 82.2471 36.0127C82.2471 35.2607 82.4803 34.7305 82.9051 34.4861C83.33 34.2417 83.9166 34.3094 84.5558 34.6779C85.308 35.1691 85.9341 35.8304 86.3835 36.6083C86.8329 37.3863 87.093 38.259 87.1426 39.1561C87.1528 39.5123 87.0808 39.8661 86.9321 40.1901C86.8303 40.3919 86.674 40.5612 86.4809 40.6789L86.4358 40.7052C86.3116 40.9024 86.232 41.1244 86.2026 41.3557C86.3984 41.3247 86.587 41.2584 86.7591 41.1601C87.1292 40.9368 87.4058 40.5868 87.5374 40.175C87.646 39.8464 87.6993 39.5021 87.6954 39.1561C87.6954 37.6784 86.8494 35.9337 85.6875 34.8433L85.9695 34.6817C85.9178 34.4267 85.8913 34.1673 85.8906 33.9071C85.8906 33.1551 86.1237 32.6287 86.5486 32.3805C86.9734 32.1324 87.56 32.2038 88.1992 32.5761C88.9519 33.0668 89.5783 33.728 90.0278 34.506C90.4772 35.2841 90.737 36.157 90.7861 37.0542C90.7959 37.4104 90.7238 37.7642 90.5755 38.0882C90.4726 38.2893 90.3165 38.4583 90.1243 38.577L90.0792 38.5996C89.955 38.7982 89.8755 39.0214 89.8461 39.2538C90.0414 39.2211 90.2297 39.155 90.4026 39.0583C90.7729 38.8352 91.0495 38.4851 91.1809 38.0732C91.2891 37.7445 91.3425 37.4002 91.3388 37.0542C91.3388 35.5728 90.4928 33.8319 89.331 32.7377L89.613 32.5761C89.5624 32.3285 89.536 32.0767 89.534 31.8241C89.534 31.0721 89.7671 30.5419 90.192 30.2975C90.6169 30.0531 91.2034 30.1208 91.8426 30.4893C92.5949 30.9804 93.221 31.6417 93.6704 32.4197C94.1198 33.1976 94.3798 34.0704 94.4295 34.9674C94.4397 35.3237 94.3677 35.6775 94.219 36.0014C94.1182 36.204 93.9616 36.3736 93.7678 36.4902L93.7226 36.5165C93.5984 36.7138 93.5189 36.9358 93.4895 37.167C93.6853 37.136 93.8739 37.0698 94.046 36.9715C94.4173 36.7495 94.6942 36.3989 94.8243 35.9864C94.9346 35.6582 94.9881 35.3136 94.9823 34.9674C94.9342 33.9676 94.6499 32.9934 94.1525 32.1248C93.6551 31.2562 92.9589 30.5178 92.1209 29.9704Z" fill="black"/>
<path d="M42.9476 72.0189L92.3088 43.5218C93.1699 43.0255 93.9632 43.4203 94.0798 44.4092L94.8995 51.1772C94.9358 51.7047 94.83 52.2323 94.5933 52.7051C94.3566 53.1779 93.9975 53.5786 93.5534 53.8656L44.2109 82.3213C43.3499 82.8176 42.5528 82.419 42.4324 81.4339L41.6052 74.7073C41.5674 74.18 41.672 73.6522 41.9081 73.1792C42.1443 72.7062 42.5033 72.3055 42.9476 72.0189Z" fill="#099FCE"/>
<path d="M47.3498 77.384L46.6993 77.8954L45.8007 73.5375L45.6014 77.8841L46.0639 77.7299L46.0338 78.1924L44.7441 78.9594L44.7742 78.4932L45.1991 78.1398L45.4021 73.5714L44.9697 73.6842L44.9998 73.2367L46.3384 72.4659L47.1393 76.459L48.0304 71.4883L49.3577 70.7363L49.3276 71.2026L48.9516 71.5259L49.0531 75.9326L49.5081 75.7747L49.478 76.2372L47.9514 77.0794L47.9815 76.617L48.4064 76.2673L48.3161 71.9809L47.3498 77.384Z" fill="#FAFAFA"/>
<path d="M50.3131 77.5454C50.0236 77.7108 49.8281 77.5942 49.8281 77.2521C49.8171 77.0717 49.8517 76.8914 49.9286 76.7278C50.0054 76.5642 50.1221 76.4226 50.268 76.3158L50.3357 76.5377C50.3846 76.6918 50.4372 76.8197 50.565 76.7445C50.6929 76.6693 50.7718 76.4362 50.8546 76.109L51.0689 75.2856L50.9335 75.3646C50.7267 75.4849 50.5914 75.4097 50.4635 75.1653C50.2348 74.4739 50.1403 73.7452 50.1853 73.0183V72.413C50.1853 72.2438 50.1477 72.2099 50.0725 72.255C49.9738 72.3283 49.8853 72.4142 49.8093 72.5107L49.7266 72.1347C49.9044 71.8861 50.1261 71.672 50.3808 71.503C50.7342 71.3 50.8433 71.5482 50.8433 71.9693C50.8433 72.1498 50.8433 72.3453 50.8433 72.5709C50.8137 73.2036 50.8783 73.8372 51.035 74.4509C51.0952 74.6464 51.1629 74.6389 51.2343 74.5975H51.2569L51.8096 72.2099C51.9186 71.7437 51.8622 71.6647 51.6893 71.6685H51.5126C51.4772 71.4774 51.4961 71.2803 51.5672 71.0995C51.6384 70.9187 51.7588 70.7615 51.9149 70.6458C52.1706 70.4991 52.336 70.6458 52.336 71.0894C52.2864 71.7363 52.1705 72.3763 51.9901 72.9995L51.3358 75.6315C51.099 76.5189 50.8771 77.2182 50.3131 77.5454Z" fill="#FAFAFA"/>
<path d="M54.3133 73.1505L54.4449 67.8301L54.0312 67.9016L54.0613 67.4541L54.9712 66.9277L55.054 66.9653L54.9901 69.6349L54.8359 71.5939H54.8772L55.069 70.3869C55.2645 69.1499 55.4826 68.5483 55.9789 68.2625C56.5354 67.9392 56.7836 68.4881 56.7836 69.5372C56.7836 71.1953 56.2384 72.4173 55.43 72.8836C55.0942 73.0857 54.7041 73.1789 54.3133 73.1505ZM55.2344 71.2705L55.0389 72.3985C55.103 72.4154 55.17 72.4178 55.235 72.4054C55.3001 72.3931 55.3616 72.3663 55.4149 72.3271C55.8962 72.0489 56.0804 70.9547 56.0804 69.9921C56.0804 69.5033 56.0805 68.9017 55.8436 69.0371C55.6067 69.1725 55.4939 69.7553 55.2344 71.2668V71.2705Z" fill="#FAFAFA"/>
<path d="M57.2725 66.032L57.3138 65.577L58.2425 65.0469L58.3253 65.0882L58.2125 70.3259C58.2125 70.544 58.2313 70.6493 58.3478 70.5816C58.4612 70.4909 58.5536 70.3768 58.6185 70.247L58.7389 70.5628C58.5771 70.8832 58.3412 71.1603 58.0508 71.3712C57.7312 71.5592 57.5507 71.4013 57.5657 70.826L57.6936 65.9606L57.2725 66.032Z" fill="#FAFAFA"/>
<path d="M60.3632 65.7282C61.1415 65.277 61.4912 65.9012 61.4912 67.0856C61.4912 68.27 61.1152 69.5935 60.2091 70.1199C59.4759 70.541 59.0811 69.992 59.0811 68.7888C59.0811 67.5856 59.4082 66.2772 60.3632 65.7282ZM60.8031 67.4766C60.8031 66.6118 60.7204 66.0478 60.3331 66.2696C59.8556 66.5441 59.7804 67.5029 59.7804 68.394C59.7804 69.2852 59.8857 69.774 60.2579 69.5596C60.7129 69.2964 60.8031 68.4316 60.8031 67.4766Z" fill="#FAFAFA"/>
<path d="M63.8789 65.7992L63.7698 66.4609C63.548 67.7995 63.3562 68.3071 62.905 68.5665C62.3185 68.9049 62.0628 68.2582 62.0628 67.3107C62.0628 65.8067 62.5554 64.4719 63.3111 64.0357C63.5033 63.9209 63.7227 63.8599 63.9466 63.859L64.2925 63.4605L64.4993 63.4229L64.4166 66.946C64.3827 68.2845 63.8826 69.7284 62.8599 70.33C62.4501 70.5669 62.0214 70.5593 62.0214 69.9803C62.0115 69.8222 62.0406 69.664 62.1061 69.5197C62.1717 69.3755 62.2717 69.2496 62.3974 69.1531C62.4492 69.1186 62.511 69.1025 62.5731 69.1072C62.6351 69.112 62.6937 69.1374 62.7396 69.1794L62.6907 69.4125C62.608 69.8111 62.6644 69.9389 62.9351 69.7885C63.4728 69.4802 63.7586 68.6004 63.8225 67.3445L63.9052 65.8067L63.8789 65.7992ZM63.6345 65.5285L63.8112 64.4644C63.7478 64.4456 63.681 64.4416 63.6158 64.4526C63.5506 64.4637 63.4888 64.4896 63.4352 64.5283C62.9502 64.8065 62.7584 65.833 62.7584 66.9234C62.7584 67.6303 62.7885 67.9875 63.0178 67.8559C63.2472 67.7243 63.3525 67.2468 63.6345 65.5172V65.5285Z" fill="#FAFAFA"/>
<path d="M92.3494 48.8347V48.9137C92.3751 49.2828 92.301 49.6521 92.135 49.9829C91.9689 50.3136 91.717 50.5937 91.4056 50.7937L68.1989 64.1793C68.0831 64.2662 67.9452 64.3187 67.8009 64.3309C67.6566 64.343 67.5119 64.3143 67.3832 64.248C67.2545 64.1817 67.147 64.0805 67.0732 63.9559C66.9993 63.8314 66.9621 63.6886 66.9656 63.5438V63.4761C66.9408 63.1075 67.0148 62.7388 67.1801 62.4083C67.3453 62.0779 67.5958 61.7975 67.9056 61.5961L91.1161 48.1993C91.2319 48.1123 91.3698 48.0598 91.5141 48.0476C91.6584 48.0355 91.8032 48.0642 91.9319 48.1305C92.0606 48.1968 92.168 48.2981 92.2418 48.4226C92.3157 48.5471 92.353 48.69 92.3494 48.8347Z" fill="#FAFAFA"/>
<path d="M89.4884 51.9062L91.4136 50.7782C91.725 50.5782 91.9769 50.2982 92.1429 49.9675C92.3089 49.6367 92.383 49.2674 92.3573 48.8982V48.8193C92.3598 48.6742 92.3213 48.5314 92.2463 48.4072C92.1712 48.283 92.0626 48.1826 91.933 48.1174C91.8034 48.0522 91.658 48.0249 91.5136 48.0386C91.3691 48.0524 91.2315 48.1066 91.1165 48.1951L89.1914 49.3231L89.4884 51.9062Z" fill="#455A64"/>
<path opacity="0.4" d="M54.272 79.9413C54.2879 80.2017 54.2335 80.4617 54.1144 80.6939C53.9953 80.926 53.816 81.1219 53.5952 81.261L43.917 86.8559C43.8371 86.9192 43.741 86.9588 43.6397 86.9702C43.5385 86.9817 43.436 86.9645 43.344 86.9206C43.252 86.8768 43.1741 86.808 43.1192 86.7221C43.0643 86.6363 43.0346 86.5367 43.0334 86.4348C43.0163 86.1746 43.0698 85.9146 43.1883 85.6823C43.3068 85.45 43.4858 85.254 43.7064 85.115L53.3922 79.5201C53.4717 79.4565 53.5676 79.4165 53.6688 79.4049C53.77 79.3933 53.8725 79.4104 53.9643 79.4544C54.0562 79.4984 54.1339 79.5674 54.1883 79.6535C54.2427 79.7397 54.2717 79.8394 54.272 79.9413Z" fill="#455A64"/>
<path opacity="0.4" d="M76.7498 66.9651C76.7653 67.2255 76.7106 67.4852 76.5916 67.7174C76.4726 67.9495 76.2935 68.1454 76.073 68.2848L57.0211 79.2828C56.9412 79.3461 56.8451 79.3857 56.7438 79.3971C56.6425 79.4086 56.5401 79.3914 56.4481 79.3475C56.3561 79.3037 56.2782 79.2349 56.2233 79.149C56.1684 79.0632 56.1386 78.9636 56.1375 78.8617C56.1216 78.6012 56.176 78.3413 56.2951 78.1091C56.4142 77.8769 56.5935 77.681 56.8143 77.5419L75.8662 66.5515C75.9456 66.4885 76.041 66.449 76.1416 66.4373C76.2422 66.4255 76.3441 66.4421 76.4359 66.485C76.5276 66.528 76.6056 66.5956 76.6611 66.6804C76.7165 66.7652 76.7472 66.8638 76.7498 66.9651Z" fill="#455A64"/>
<path opacity="0.4" d="M94.7971 57.4746L79.4976 66.3068C79.4177 66.3701 79.3217 66.4097 79.2204 66.4212C79.1191 66.4326 79.0166 66.4154 78.9246 66.3716C78.8326 66.3277 78.7547 66.2589 78.6998 66.1731C78.6449 66.0872 78.6152 65.9876 78.614 65.8857C78.5981 65.6253 78.6526 65.3653 78.7717 65.1331C78.8907 64.901 79.07 64.7051 79.2908 64.566L94.5978 55.7262C94.6776 55.6623 94.7738 55.6223 94.8753 55.6109C94.9769 55.5994 95.0796 55.6169 95.1716 55.6613C95.2637 55.7057 95.3412 55.7753 95.3954 55.862C95.4495 55.9487 95.478 56.0489 95.4776 56.1511C95.4926 56.4123 95.4374 56.6729 95.3177 56.9056C95.1981 57.1383 95.0183 57.3348 94.7971 57.4746Z" fill="#455A64"/>
<path opacity="0.4" d="M51.0572 86.2611C51.073 86.5216 51.0186 86.7815 50.8995 87.0137C50.7805 87.2459 50.6011 87.4418 50.3804 87.5809L44.4433 90.9912C44.363 91.0556 44.2665 91.0966 44.1644 91.1098C44.0623 91.123 43.9585 91.1077 43.8645 91.0658C43.7704 91.0238 43.6898 90.9567 43.6314 90.8719C43.573 90.7871 43.5391 90.6879 43.5334 90.5851C43.5115 90.3283 43.5606 90.0705 43.6753 89.8397C43.7901 89.609 43.966 89.4142 44.1839 89.2766L50.1698 85.8249C50.2507 85.7597 50.3485 85.719 50.4517 85.7075C50.555 85.696 50.6594 85.7142 50.7526 85.76C50.8458 85.8058 50.924 85.8773 50.978 85.9661C51.0319 86.0549 51.0594 86.1572 51.0572 86.2611Z" fill="#455A64"/>
<path opacity="0.4" d="M69.7637 75.459C69.7795 75.7191 69.7255 75.9786 69.6071 76.2107C69.4888 76.4428 69.3104 76.6389 69.0906 76.7788L53.8062 85.6035C53.7268 85.6683 53.6305 85.7092 53.5287 85.7215C53.4269 85.7337 53.3237 85.7168 53.2311 85.6727C53.1386 85.6285 53.0604 85.559 53.0058 85.4722C52.9512 85.3855 52.9223 85.2849 52.9226 85.1824C52.9068 84.9224 52.9608 84.6628 53.0792 84.4307C53.1975 84.1986 53.3759 84.0025 53.5957 83.8626L68.8763 75.0417C68.9559 74.9775 69.052 74.937 69.1535 74.9248C69.2551 74.9126 69.358 74.9292 69.4506 74.9727C69.5431 75.0163 69.6215 75.085 69.6769 75.1709C69.7323 75.2569 69.7623 75.3568 69.7637 75.459Z" fill="#455A64"/>
<path opacity="0.4" d="M95.3239 61.6334L72.5158 74.7934C72.4357 74.858 72.3389 74.8986 72.2367 74.9105C72.1345 74.9224 72.031 74.9051 71.9382 74.8607C71.8454 74.8162 71.767 74.7464 71.7122 74.6593C71.6574 74.5722 71.6283 74.4714 71.6284 74.3685C71.6133 74.1082 71.6681 73.8485 71.7871 73.6165C71.9061 73.3844 72.085 73.1884 72.3052 73.0487L95.0758 59.8887C95.1564 59.8252 95.2529 59.7851 95.3547 59.7727C95.4566 59.7603 95.5599 59.776 95.6534 59.8183C95.7469 59.8606 95.827 59.9278 95.8849 60.0125C95.9428 60.0971 95.9764 60.1961 95.9819 60.2986C96.0081 60.5603 95.9603 60.8242 95.844 61.0602C95.7277 61.2961 95.5475 61.4947 95.3239 61.6334Z" fill="#455A64"/>
<path opacity="0.4" d="M59.0328 86.0322C59.049 86.2932 58.9947 86.5538 58.8756 86.7866C58.7565 87.0195 58.5771 87.216 58.356 87.3557L44.9742 95.0825C44.894 95.1458 44.7986 95.1867 44.6976 95.2012C44.5966 95.2157 44.4935 95.2032 44.3988 95.1651C44.3042 95.1269 44.2213 95.0644 44.1586 94.9839C44.0958 94.9033 44.0555 94.8077 44.0417 94.7065C44.0114 94.4544 44.0542 94.1988 44.1648 93.9702C44.2754 93.7416 44.4493 93.5496 44.6658 93.4169L58.1492 85.6299C58.2278 85.5675 58.3222 85.528 58.4219 85.5158C58.5216 85.5036 58.6227 85.5191 58.7141 85.5607C58.8055 85.6023 58.8836 85.6684 58.9398 85.7516C58.9961 85.8348 59.0282 85.9319 59.0328 86.0322Z" fill="#455A64"/>
<path opacity="0.4" d="M83.3448 71.9852C83.3621 72.2459 83.3088 72.5066 83.1903 72.7395C83.0719 72.9725 82.8927 73.1691 82.6717 73.3087L61.9917 85.2429C61.9118 85.3062 61.8158 85.3458 61.7145 85.3573C61.6132 85.3687 61.5107 85.3515 61.4187 85.3077C61.3267 85.2638 61.2488 85.195 61.1939 85.1092C61.139 85.0233 61.1093 84.9237 61.1081 84.8218C61.0924 84.5609 61.1468 84.3004 61.2659 84.0677C61.3849 83.8349 61.5641 83.6383 61.7849 83.4983L82.4649 71.5641C82.5449 71.5019 82.6406 71.4632 82.7413 71.4524C82.8419 71.4415 82.9437 71.4589 83.035 71.5026C83.1264 71.5464 83.2038 71.6147 83.2585 71.6999C83.3132 71.7851 83.3431 71.8839 83.3448 71.9852Z" fill="#455A64"/>
<path opacity="0.4" d="M95.8353 65.709L86.0969 71.349C86.0171 71.4134 85.9207 71.4539 85.8188 71.466C85.7169 71.478 85.6137 71.4611 85.521 71.4171C85.4283 71.3731 85.3499 71.3039 85.2948 71.2173C85.2398 71.1308 85.2102 71.0305 85.2096 70.9279C85.1942 70.667 85.2488 70.4067 85.3678 70.174C85.4868 69.9413 85.6658 69.7446 85.8864 69.6044L95.5383 64.032C95.6199 63.9693 95.7168 63.9295 95.819 63.9166C95.9211 63.9038 96.0249 63.9184 96.1195 63.959C96.2141 63.9996 96.2962 64.0647 96.3573 64.1476C96.4184 64.2305 96.4562 64.3282 96.467 64.4306C96.492 64.6815 96.446 64.9343 96.3344 65.1603C96.2227 65.3863 96.0498 65.5764 95.8353 65.709Z" fill="#455A64"/>
<path opacity="0.4" d="M66.9891 85.7271C67.0062 85.9873 66.9526 86.2473 66.8342 86.4796C66.7157 86.7119 66.5367 86.9079 66.316 87.0469L45.4593 99.0789C45.3774 99.1421 45.2806 99.1829 45.1782 99.1974C45.0758 99.212 44.9714 99.1997 44.8751 99.1618C44.7789 99.1239 44.6941 99.0617 44.6291 98.9813C44.5641 98.9008 44.5211 98.8049 44.5043 98.7029C44.467 98.4537 44.5043 98.199 44.6113 97.9709C44.7183 97.7428 44.8904 97.5514 45.1059 97.4207L66.1017 85.2985C66.1821 85.2337 66.2792 85.1931 66.3817 85.1813C66.4843 85.1695 66.5881 85.1871 66.681 85.232C66.774 85.2769 66.8523 85.3473 66.9068 85.4349C66.9613 85.5226 66.9899 85.6239 66.9891 85.7271Z" fill="#455A64"/>
<path opacity="0.4" d="M78.2081 79.2411C78.2248 79.5012 78.1711 79.7611 78.0527 79.9933C77.9343 80.2255 77.7555 80.4216 77.5351 80.5608L69.7293 85.0728C69.6499 85.1376 69.5536 85.1786 69.4518 85.1908C69.35 85.203 69.2468 85.1861 69.1542 85.142C69.0617 85.0979 68.9835 85.0284 68.9289 84.9416C68.8743 84.8548 68.8455 84.7543 68.8457 84.6517C68.8291 84.3916 68.8828 84.1317 69.0012 83.8995C69.1196 83.6673 69.2984 83.4712 69.5188 83.332L77.3208 78.82C77.4007 78.7556 77.4971 78.715 77.5989 78.703C77.7008 78.6909 77.804 78.7079 77.8967 78.7519C77.9894 78.7959 78.0678 78.8651 78.1229 78.9516C78.178 79.0382 78.2075 79.1385 78.2081 79.2411Z" fill="#455A64"/>
<path opacity="0.4" d="M96.3395 69.7101L81.2168 78.4483C81.1368 78.5116 81.0408 78.5512 80.9395 78.5626C80.8382 78.5741 80.7358 78.5569 80.6437 78.513C80.5517 78.4692 80.4739 78.4004 80.419 78.3145C80.3641 78.2286 80.3343 78.1291 80.3331 78.0272C80.3162 77.7665 80.3697 77.506 80.4882 77.2731C80.6066 77.0402 80.7855 76.8435 81.0062 76.7037L96.0086 68.0557C96.0901 67.9923 96.1868 67.9513 96.289 67.9367C96.3912 67.922 96.4955 67.9343 96.5915 67.9723C96.6875 68.0102 96.772 68.0725 96.8366 68.1531C96.9012 68.2337 96.9437 68.3297 96.9599 68.4317C96.9925 68.682 96.9512 68.9365 96.8409 69.1637C96.7307 69.3909 96.5564 69.5808 96.3395 69.7101Z" fill="#455A64"/>
<path opacity="0.4" d="M48.7974 100.768C48.8182 101.026 48.7679 101.285 48.652 101.517C48.536 101.749 48.3587 101.945 48.1394 102.084L46.0376 103.298C45.9533 103.361 45.8544 103.402 45.7502 103.416C45.646 103.431 45.5399 103.419 45.4416 103.381C45.3433 103.344 45.2561 103.282 45.1881 103.202C45.12 103.121 45.0734 103.025 45.0525 102.922C45.0086 102.677 45.0401 102.425 45.1428 102.199C45.2456 101.973 45.4147 101.783 45.6277 101.655L47.8837 100.343C47.9648 100.275 48.0635 100.231 48.1683 100.218C48.2731 100.204 48.3797 100.22 48.4756 100.265C48.5714 100.309 48.6526 100.38 48.7096 100.469C48.7666 100.558 48.7971 100.662 48.7974 100.768Z" fill="#455A64"/>
<path opacity="0.4" d="M59.0323 94.8792C59.0536 95.1369 59.0039 95.3955 58.8886 95.6268C58.7732 95.8582 58.5966 96.0535 58.378 96.1915L51.61 100.102C51.5298 100.167 51.4332 100.208 51.3309 100.221C51.2285 100.234 51.1246 100.219 51.0306 100.176C50.9366 100.134 50.8562 100.066 50.7985 99.9805C50.7408 99.895 50.7081 99.7951 50.7039 99.6921C50.6829 99.434 50.7332 99.1752 50.8492 98.9438C50.9652 98.7124 51.1426 98.5173 51.3619 98.3798L58.1299 94.4656C58.2099 94.4002 58.3067 94.3585 58.4093 94.3453C58.5118 94.3321 58.616 94.348 58.71 94.3911C58.804 94.4342 58.884 94.5028 58.941 94.589C58.998 94.6753 59.0296 94.7759 59.0323 94.8792Z" fill="#455A64"/>
<path opacity="0.4" d="M73.0691 86.7654C73.0936 87.0211 73.0464 87.2786 72.9329 87.5091C72.8193 87.7395 72.6438 87.9338 72.4261 88.0701L61.8003 94.2027C61.7197 94.2662 61.6232 94.3063 61.5214 94.3188C61.4195 94.3312 61.3162 94.3154 61.2227 94.2731C61.1292 94.2308 61.0492 94.1637 60.9912 94.079C60.9333 93.9943 60.8997 93.8953 60.8942 93.7928C60.876 93.5373 60.9277 93.2816 61.0436 93.0531C61.1595 92.8246 61.3353 92.632 61.5522 92.4956L72.1591 86.3744C72.2388 86.3118 72.3339 86.2718 72.4344 86.2587C72.5349 86.2455 72.6371 86.2597 72.7302 86.2997C72.8233 86.3397 72.9039 86.4041 72.9635 86.4861C73.0232 86.568 73.0596 86.6645 73.0691 86.7654Z" fill="#455A64"/>
<path opacity="0.4" d="M55.0923 102.023C55.1234 102.275 55.0815 102.531 54.9715 102.759C54.8615 102.988 54.6881 103.18 54.4719 103.313L46.8128 107.735C46.7286 107.798 46.6301 107.84 46.526 107.856C46.4219 107.872 46.3154 107.863 46.2159 107.828C46.1164 107.794 46.0269 107.735 45.9552 107.658C45.8836 107.581 45.8321 107.487 45.8051 107.385C45.7549 107.145 45.7812 106.896 45.8804 106.672C45.9796 106.448 46.1466 106.261 46.3578 106.137L54.1561 101.625C54.2381 101.561 54.3355 101.521 54.4384 101.508C54.5412 101.494 54.6457 101.509 54.7411 101.55C54.8365 101.59 54.9194 101.655 54.9811 101.739C55.0429 101.822 55.0812 101.92 55.0923 102.023Z" fill="#455A64"/>
<path opacity="0.4" d="M66.3227 95.541C66.3544 95.7919 66.3131 96.0466 66.2037 96.2747C66.0943 96.5027 65.9216 96.6944 65.7061 96.8269L60.9309 99.583L57.9718 101.29C57.8909 101.354 57.7947 101.395 57.6929 101.41C57.591 101.425 57.487 101.413 57.3914 101.374C57.2957 101.336 57.2118 101.274 57.148 101.193C57.0842 101.112 57.0428 101.016 57.028 100.914C56.9978 100.662 57.0405 100.406 57.1511 100.178C57.2617 99.9491 57.4356 99.757 57.6522 99.6243L65.3865 95.1574C65.4675 95.0943 65.5637 95.0536 65.6654 95.0396C65.7672 95.0256 65.8708 95.0387 65.9658 95.0777C66.0609 95.1166 66.1439 95.18 66.2066 95.2613C66.2693 95.3427 66.3093 95.4391 66.3227 95.541Z" fill="#455A64"/>
<path opacity="0.4" d="M73.8287 91.2056C73.8602 91.4571 73.8188 91.7123 73.7095 91.9409C73.6002 92.1695 73.4275 92.3619 73.212 92.4953L69.2039 94.8077C69.1231 94.8705 69.0272 94.9111 68.9258 94.9254C68.8245 94.9397 68.7211 94.9272 68.6261 94.8892C68.531 94.8512 68.4476 94.7889 68.3841 94.7087C68.3205 94.6284 68.2791 94.5329 68.2639 94.4317C68.2327 94.1795 68.275 93.9236 68.3857 93.6948C68.4964 93.466 68.6709 93.2741 68.888 93.142L72.8962 90.8296C72.9763 90.7664 73.0717 90.7254 73.1728 90.7109C73.2738 90.6965 73.3769 90.7089 73.4715 90.7471C73.5662 90.7853 73.6491 90.8478 73.7118 90.9283C73.7745 91.0088 73.8149 91.1045 73.8287 91.2056Z" fill="#455A64"/>
<path opacity="0.4" d="M61.6949 103.024C61.7376 103.269 61.7052 103.522 61.6018 103.749C61.4985 103.976 61.3291 104.166 61.1158 104.295L47.7528 112.014C47.667 112.076 47.5678 112.117 47.4632 112.134C47.3586 112.15 47.2516 112.142 47.1508 112.109C47.0501 112.077 46.9584 112.021 46.8834 111.946C46.8083 111.871 46.7519 111.78 46.7188 111.679C46.6622 111.444 46.6828 111.197 46.7776 110.974C46.8724 110.751 47.0363 110.565 47.2452 110.442L60.7098 102.667C60.7918 102.601 60.8895 102.557 60.9934 102.54C61.0972 102.522 61.2038 102.532 61.3028 102.568C61.4018 102.604 61.4899 102.665 61.5586 102.745C61.6273 102.824 61.6742 102.921 61.6949 103.024Z" fill="#455A64"/>
<path opacity="0.4" d="M74.7271 95.503C74.7673 95.7498 74.7329 96.0028 74.6284 96.2299C74.5239 96.457 74.354 96.6477 74.1405 96.7777L64.5337 102.324C64.4501 102.387 64.3517 102.428 64.2479 102.442C64.1441 102.457 64.0383 102.445 63.9404 102.407C63.8426 102.37 63.7559 102.308 63.6887 102.227C63.6214 102.147 63.5758 102.051 63.5561 101.948C63.5149 101.701 63.5488 101.447 63.6534 101.22C63.758 100.993 63.9284 100.802 64.1427 100.673L73.7608 95.127C73.8437 95.0644 73.9413 95.024 74.0442 95.0097C74.1471 94.9954 74.252 95.0077 74.3489 95.0454C74.4457 95.0831 74.5313 95.1449 74.5975 95.225C74.6637 95.3051 74.7083 95.4008 74.7271 95.503Z" fill="#455A64"/>
<path opacity="0.4" d="M55.3025 111.502C55.354 111.741 55.3291 111.99 55.2312 112.214C55.1334 112.438 54.9676 112.625 54.7573 112.75L48.8804 116.134C48.7938 116.196 48.694 116.238 48.5888 116.255C48.4835 116.272 48.3758 116.265 48.2738 116.233C48.1719 116.202 48.0786 116.148 48.0012 116.074C47.9238 116.001 47.8644 115.911 47.8276 115.811C47.7622 115.58 47.7763 115.334 47.8677 115.112C47.9591 114.891 48.1225 114.706 48.3314 114.589L54.2948 111.145C54.3798 111.082 54.4788 111.042 54.5831 111.026C54.6873 111.011 54.7938 111.021 54.8931 111.057C54.9924 111.092 55.0817 111.151 55.153 111.228C55.2244 111.306 55.2757 111.4 55.3025 111.502Z" fill="#455A64"/>
<path opacity="0.4" d="M65.996 106.261L58.1827 110.773C58.0977 110.836 57.9987 110.877 57.8942 110.894C57.7897 110.91 57.6827 110.901 57.5826 110.867C57.4824 110.833 57.3919 110.775 57.319 110.698C57.246 110.622 57.1928 110.528 57.1637 110.427C57.1133 110.186 57.1394 109.936 57.2386 109.712C57.3377 109.487 57.5049 109.299 57.7165 109.175L65.5373 104.663C65.6215 104.6 65.7196 104.559 65.8232 104.543C65.9268 104.528 66.0328 104.537 66.1317 104.572C66.2307 104.606 66.3197 104.665 66.3911 104.741C66.4625 104.818 66.514 104.911 66.5412 105.012C66.5933 105.251 66.5686 105.501 66.4707 105.725C66.3728 105.949 66.2067 106.136 65.996 106.261Z" fill="#455A64"/>
<path opacity="0.4" d="M75.7791 99.6807C75.8294 99.9206 75.8035 100.17 75.7051 100.395C75.6067 100.619 75.4407 100.807 75.2302 100.933L69.4172 104.287C69.3326 104.35 69.2339 104.391 69.1296 104.408C69.0253 104.424 68.9185 104.415 68.8186 104.381C68.7186 104.347 68.6285 104.289 68.5559 104.212C68.4833 104.136 68.4305 104.042 68.402 103.941C68.3515 103.701 68.3777 103.45 68.4769 103.226C68.576 103.001 68.7432 102.813 68.9547 102.689L74.779 99.3273C74.8631 99.2648 74.9613 99.2239 75.0649 99.2083C75.1685 99.1927 75.2744 99.2028 75.3732 99.2377C75.472 99.2726 75.5607 99.3313 75.6315 99.4085C75.7023 99.4858 75.753 99.5793 75.7791 99.6807Z" fill="#455A64"/>
<path opacity="0.4" d="M64.0635 111.16C64.125 111.393 64.1079 111.64 64.0148 111.862C63.9216 112.084 63.7576 112.27 63.5483 112.389L50.1552 120.124C50.0666 120.185 49.9654 120.226 49.8588 120.244C49.7523 120.262 49.6432 120.255 49.5394 120.225C49.4357 120.196 49.3399 120.143 49.2591 120.071C49.1783 120 49.1145 119.911 49.0723 119.812C49.0008 119.585 49.0096 119.341 49.0973 119.12C49.185 118.9 49.3462 118.716 49.5536 118.601L63.0182 110.829C63.1044 110.766 63.2042 110.724 63.3095 110.707C63.4149 110.69 63.5227 110.698 63.6245 110.73C63.7262 110.762 63.819 110.818 63.8952 110.893C63.9715 110.967 64.0291 111.059 64.0635 111.16Z" fill="#455A64"/>
<path opacity="0.4" d="M77.0316 103.67C77.096 103.9 77.0818 104.146 76.9912 104.367C76.9007 104.588 76.7389 104.773 76.5316 104.892L66.9699 110.412C66.8837 110.474 66.7841 110.515 66.6792 110.532C66.5743 110.549 66.4669 110.541 66.3654 110.51C66.264 110.478 66.1713 110.423 66.0948 110.349C66.0183 110.275 65.96 110.185 65.9246 110.085C65.8624 109.852 65.8792 109.605 65.9724 109.382C66.0656 109.16 66.23 108.974 66.4397 108.855L75.9864 103.343C76.0726 103.281 76.1721 103.24 76.277 103.223C76.382 103.206 76.4894 103.213 76.5908 103.245C76.6923 103.277 76.7849 103.332 76.8614 103.406C76.9379 103.479 76.9962 103.57 77.0316 103.67Z" fill="#455A64"/>
<path d="M72.9442 110.675C73.0139 110.902 73.0039 111.146 72.9156 111.366C72.8273 111.586 72.6662 111.77 72.4591 111.885L51.5535 123.955C51.4642 124.016 51.3627 124.057 51.256 124.076C51.1494 124.094 51.04 124.089 50.9354 124.061C50.8308 124.033 50.7335 123.983 50.65 123.914C50.5665 123.845 50.499 123.759 50.4518 123.662C50.3722 123.441 50.3742 123.199 50.4577 122.98C50.5412 122.76 50.7005 122.578 50.9068 122.466L71.8688 110.363C71.9566 110.3 72.0573 110.258 72.1635 110.241C72.2696 110.223 72.3785 110.229 72.4819 110.259C72.5853 110.289 72.6806 110.342 72.7607 110.414C72.8407 110.486 72.9034 110.575 72.9442 110.675Z" fill="#099FCE"/>
<path opacity="0.4" d="M87.9428 102.023C88.0143 102.25 88.0055 102.494 87.9178 102.714C87.8301 102.935 87.6689 103.119 87.4615 103.234L75.7491 110.002C75.6608 110.064 75.5598 110.105 75.4536 110.123C75.3473 110.14 75.2385 110.134 75.135 110.104C75.0315 110.074 74.936 110.021 74.8556 109.95C74.7751 109.878 74.7117 109.789 74.67 109.69C74.5984 109.464 74.6072 109.22 74.6949 108.999C74.7826 108.778 74.9438 108.595 75.1513 108.479L86.8674 101.711C86.9552 101.649 87.0559 101.607 87.1621 101.589C87.2683 101.571 87.3771 101.577 87.4805 101.607C87.584 101.637 87.6792 101.69 87.7593 101.762C87.8393 101.834 87.9021 101.924 87.9428 102.023Z" fill="#455A64"/>
<path opacity="0.4" d="M102.449 94.5823L90.7364 101.35C90.6484 101.412 90.5476 101.453 90.4415 101.471C90.3355 101.489 90.2267 101.483 90.1233 101.454C90.0199 101.424 89.9243 101.372 89.8437 101.301C89.7631 101.229 89.6994 101.141 89.6573 101.042C89.5857 100.816 89.5945 100.572 89.6822 100.351C89.7699 100.13 89.9311 99.9468 90.1386 99.8313L101.795 93.0934C101.884 93.033 101.985 92.9927 102.092 92.975C102.198 92.9573 102.307 92.9628 102.411 92.9909C102.516 93.0191 102.612 93.0694 102.695 93.1383C102.778 93.2072 102.846 93.2932 102.892 93.3904C102.97 93.6096 102.968 93.849 102.887 94.0668C102.806 94.2846 102.651 94.467 102.449 94.5823Z" fill="#455A64"/>
<path opacity="0.4" d="M59.4879 123.042C59.5668 123.262 59.5648 123.502 59.4821 123.721C59.3994 123.939 59.2414 124.121 59.0367 124.234L53.1259 127.648C53.035 127.709 52.9322 127.751 52.8243 127.769C52.7163 127.788 52.6055 127.785 52.4991 127.758C52.3928 127.731 52.2932 127.683 52.2068 127.615C52.1205 127.548 52.0493 127.463 51.9979 127.366C51.9112 127.151 51.907 126.911 51.9861 126.693C52.0652 126.475 52.2221 126.294 52.4266 126.185L58.3862 122.745C58.4757 122.684 58.5774 122.643 58.6843 122.625C58.7911 122.607 58.9006 122.612 59.0052 122.64C59.1099 122.668 59.2072 122.719 59.2905 122.788C59.3738 122.858 59.4411 122.944 59.4879 123.042Z" fill="#455A64"/>
<path opacity="0.4" d="M80.1075 111.137C80.1853 111.359 80.1818 111.601 80.0978 111.82C80.0138 112.039 79.8546 112.221 79.6487 112.333L62.4994 122.237C62.4094 122.303 62.3058 122.348 62.1962 122.369C62.0866 122.39 61.9737 122.386 61.8658 122.358C61.7578 122.33 61.6574 122.278 61.5719 122.207C61.4864 122.135 61.4179 122.045 61.3714 121.944C61.2936 121.722 61.297 121.481 61.381 121.262C61.4651 121.043 61.6242 120.861 61.8301 120.748L78.9945 110.84C79.0844 110.777 79.187 110.735 79.2951 110.716C79.4032 110.696 79.5141 110.701 79.6202 110.73C79.7263 110.758 79.8249 110.809 79.909 110.88C79.9932 110.95 80.0609 111.038 80.1075 111.137Z" fill="#455A64"/>
<path opacity="0.4" d="M96.0726 101.922C96.1504 102.143 96.147 102.385 96.063 102.604C95.979 102.823 95.8198 103.005 95.6139 103.117L83.0969 110.336C83.0072 110.398 82.9052 110.44 82.798 110.458C82.6907 110.476 82.5807 110.471 82.4756 110.443C82.3705 110.415 82.2728 110.364 82.1892 110.294C82.1056 110.225 82.0381 110.138 81.9914 110.039C81.9153 109.817 81.9199 109.575 82.0045 109.356C82.089 109.136 82.2482 108.954 82.4539 108.84L94.9597 101.621C95.0498 101.558 95.1526 101.515 95.2609 101.497C95.3692 101.478 95.4803 101.483 95.5864 101.511C95.6925 101.54 95.791 101.592 95.875 101.663C95.959 101.733 96.0265 101.822 96.0726 101.922Z" fill="#455A64"/>
<path opacity="0.4" d="M104.006 98.2743L99.0801 101.117C98.9908 101.179 98.889 101.222 98.7817 101.241C98.6743 101.261 98.5641 101.256 98.4586 101.229C98.353 101.201 98.2548 101.151 98.1706 101.082C98.0864 101.012 98.0183 100.926 97.9709 100.827C97.8948 100.605 97.8994 100.363 97.984 100.143C98.0685 99.9241 98.2277 99.7416 98.4334 99.6279L103.321 96.8079C103.412 96.7454 103.515 96.703 103.623 96.6833C103.731 96.6637 103.842 96.6673 103.949 96.694C104.056 96.7207 104.156 96.7698 104.242 96.8381C104.328 96.9063 104.399 96.9922 104.449 97.0899C104.533 97.3075 104.533 97.5479 104.452 97.7661C104.37 97.9842 104.211 98.165 104.006 98.2743Z" fill="#455A64"/>
<path opacity="0.4" d="M68.6618 122.271C68.7498 122.484 68.7554 122.723 68.6776 122.94C68.5998 123.158 68.4441 123.339 68.2407 123.448L54.8024 131.201C54.7103 131.262 54.6066 131.304 54.4978 131.324C54.389 131.343 54.2773 131.341 54.1696 131.316C54.0619 131.291 53.9604 131.244 53.8714 131.178C53.7823 131.113 53.7076 131.029 53.6519 130.934C53.5588 130.724 53.549 130.487 53.6245 130.271C53.6999 130.054 53.8549 129.875 54.0579 129.768L67.5225 121.996C67.6139 121.935 67.7171 121.893 67.8256 121.873C67.9341 121.853 68.0455 121.857 68.1527 121.882C68.2599 121.908 68.3605 121.956 68.4482 122.023C68.5358 122.09 68.6086 122.174 68.6618 122.271Z" fill="#455A64"/>
<path opacity="0.4" d="M87.413 111.446C87.501 111.659 87.5066 111.898 87.4288 112.115C87.351 112.332 87.1953 112.513 86.9919 112.622L71.6699 121.466C71.5787 121.525 71.4764 121.565 71.3692 121.584C71.262 121.602 71.1522 121.598 71.0466 121.572C70.9409 121.547 70.8416 121.5 70.7548 121.434C70.668 121.369 70.5956 121.286 70.5419 121.191C70.4523 120.979 70.4459 120.74 70.5239 120.523C70.6019 120.306 70.7586 120.126 70.963 120.018L86.285 111.171C86.3761 111.112 86.4784 111.072 86.5856 111.053C86.6928 111.035 86.8026 111.039 86.9083 111.065C87.0139 111.09 87.1132 111.137 87.2 111.203C87.2868 111.268 87.3593 111.351 87.413 111.446Z" fill="#455A64"/>
<path opacity="0.4" d="M105.683 101.828L90.4172 110.642C90.3262 110.701 90.2239 110.742 90.1166 110.761C90.0093 110.779 89.8993 110.775 89.7935 110.75C89.6877 110.724 89.5883 110.677 89.5015 110.611C89.4148 110.545 89.3425 110.462 89.2892 110.367C89.1994 110.154 89.1929 109.915 89.2709 109.697C89.3488 109.479 89.5056 109.298 89.7103 109.19L104.95 100.392C105.041 100.33 105.145 100.288 105.254 100.269C105.363 100.249 105.474 100.252 105.582 100.277C105.69 100.303 105.791 100.35 105.879 100.416C105.968 100.483 106.042 100.566 106.096 100.662C106.187 100.873 106.195 101.11 106.118 101.326C106.041 101.542 105.886 101.722 105.683 101.828Z" fill="#455A64"/>
<path opacity="0.4" d="M59.1866 132.194C59.2837 132.399 59.2988 132.633 59.2289 132.849C59.1591 133.065 59.0095 133.246 58.8106 133.356L56.5998 134.608C56.506 134.669 56.4011 134.71 56.2912 134.731C56.1812 134.751 56.0684 134.749 55.959 134.726C55.8497 134.703 55.7461 134.658 55.6541 134.594C55.5621 134.531 55.4835 134.45 55.4229 134.356C55.3224 134.152 55.3055 133.918 55.3757 133.702C55.446 133.486 55.5979 133.307 55.7989 133.201L58.0135 131.923C58.1076 131.862 58.2132 131.82 58.3239 131.8C58.4346 131.78 58.5482 131.783 58.6577 131.808C58.7673 131.834 58.8706 131.881 58.9615 131.947C59.0524 132.013 59.129 132.097 59.1866 132.194Z" fill="#455A64"/>
<path opacity="0.4" d="M77.9043 121.388C78.0016 121.594 78.0148 121.831 77.9411 122.047C77.8675 122.263 77.7127 122.442 77.5095 122.546L62.2439 131.363C62.1507 131.424 62.0463 131.465 61.9369 131.485C61.8274 131.505 61.7151 131.503 61.6065 131.479C61.4979 131.455 61.3952 131.409 61.3045 131.344C61.2138 131.28 61.1369 131.198 61.0783 131.104C60.9808 130.897 60.9675 130.66 61.0411 130.443C61.1148 130.226 61.2696 130.047 61.4731 129.942L76.7387 121.128C76.8317 121.067 76.9361 121.025 77.0457 121.005C77.1552 120.985 77.2677 120.987 77.3765 121.011C77.4852 121.035 77.588 121.081 77.6786 121.146C77.7693 121.211 77.8461 121.293 77.9043 121.388Z" fill="#455A64"/>
<path opacity="0.4" d="M96.6329 110.57C96.7302 110.777 96.7434 111.013 96.6698 111.229C96.5961 111.445 96.4413 111.624 96.2381 111.728L80.9499 120.557C80.8569 120.618 80.7525 120.66 80.643 120.68C80.5334 120.7 80.4209 120.698 80.3122 120.674C80.2034 120.65 80.1007 120.604 80.01 120.539C79.9193 120.474 79.8426 120.392 79.7843 120.297C79.6869 120.09 79.6735 119.853 79.7472 119.637C79.8208 119.42 79.9757 119.24 80.1792 119.135L95.4673 110.307C95.5606 110.246 95.6651 110.204 95.7749 110.184C95.8846 110.164 95.9972 110.167 96.1059 110.191C96.2147 110.216 96.3174 110.262 96.4079 110.327C96.4985 110.392 96.575 110.475 96.6329 110.57Z" fill="#455A64"/>
<path opacity="0.4" d="M107.48 105.245L99.7045 109.735C99.6113 109.795 99.5069 109.837 99.3974 109.857C99.2879 109.877 99.1756 109.874 99.067 109.85C98.9584 109.826 98.8558 109.78 98.7651 109.716C98.6744 109.652 98.5974 109.57 98.5388 109.475C98.4433 109.268 98.431 109.032 98.5044 108.815C98.5779 108.599 98.7315 108.42 98.9336 108.313L106.698 103.835C106.791 103.774 106.896 103.732 107.005 103.712C107.115 103.692 107.228 103.694 107.336 103.718C107.445 103.741 107.548 103.787 107.639 103.851C107.731 103.915 107.808 103.996 107.867 104.091C107.967 104.296 107.982 104.531 107.91 104.747C107.837 104.963 107.683 105.142 107.48 105.245Z" fill="#455A64"/>
<path opacity="0.4" d="M68.549 131.174C68.6483 131.374 68.6645 131.604 68.594 131.816C68.5235 132.027 68.3721 132.202 68.173 132.302L58.4947 137.89C58.3028 138.012 58.0709 138.056 57.8474 138.012C57.6239 137.968 57.4261 137.839 57.2953 137.653C57.2439 137.555 57.2124 137.449 57.2025 137.339C57.1927 137.229 57.2048 137.119 57.238 137.014C57.2712 136.909 57.325 136.812 57.3961 136.728C57.4673 136.644 57.5544 136.575 57.6525 136.525L67.3495 130.926C67.542 130.802 67.7757 130.758 68.0001 130.804C68.2246 130.851 68.4217 130.984 68.549 131.174Z" fill="#455A64"/>
<path opacity="0.4" d="M87.2962 120.349C87.3473 120.449 87.3781 120.558 87.3868 120.67C87.3956 120.782 87.3821 120.894 87.3471 121.001C87.3121 121.108 87.2564 121.206 87.1831 121.291C87.1099 121.376 87.0205 121.446 86.9202 121.496L71.6658 130.306C71.4753 130.429 71.244 130.472 71.0217 130.427C70.7994 130.381 70.6041 130.25 70.4777 130.061C70.3755 129.859 70.3577 129.625 70.4282 129.41C70.4987 129.195 70.6518 129.017 70.8537 128.914L86.1042 120.109C86.2952 119.986 86.5265 119.942 86.749 119.987C86.9716 120.032 87.1679 120.162 87.2962 120.349Z" fill="#455A64"/>
<path opacity="0.4" d="M109.382 108.532L90.4132 119.485C90.2226 119.608 89.9906 119.652 89.768 119.605C89.5454 119.559 89.3502 119.426 89.2251 119.236C89.174 119.136 89.1432 119.027 89.1344 118.916C89.1257 118.804 89.1392 118.691 89.1741 118.585C89.2091 118.478 89.2648 118.379 89.3381 118.294C89.4114 118.209 89.5008 118.14 89.6011 118.09L108.551 107.159C108.743 107.037 108.975 106.994 109.198 107.039C109.421 107.084 109.618 107.213 109.747 107.4C109.798 107.498 109.829 107.605 109.838 107.715C109.847 107.826 109.834 107.936 109.8 108.042C109.766 108.147 109.712 108.244 109.64 108.328C109.569 108.412 109.481 108.482 109.382 108.532Z" fill="#455A64"/>
<path opacity="0.4" d="M78.0284 130.016C78.0835 130.112 78.1184 130.218 78.131 130.328C78.1435 130.438 78.1335 130.549 78.1014 130.654C78.0693 130.76 78.016 130.858 77.9445 130.942C77.8731 131.027 77.7852 131.095 77.6862 131.144L60.5068 141.063C60.3111 141.185 60.0769 141.23 59.8502 141.188C59.6234 141.146 59.4205 141.021 59.281 140.838C59.2238 140.743 59.1869 140.638 59.1727 140.528C59.1584 140.418 59.1671 140.307 59.1982 140.201C59.2294 140.095 59.2822 139.996 59.3534 139.912C59.4246 139.827 59.5126 139.758 59.6119 139.71L76.8064 129.783C77.0019 129.661 77.2365 129.616 77.4632 129.66C77.6899 129.703 77.8918 129.83 78.0284 130.016Z" fill="#455A64"/>
<path opacity="0.4" d="M96.7452 119.21C96.7998 119.306 96.8343 119.412 96.8465 119.521C96.8588 119.631 96.8486 119.742 96.8166 119.847C96.7846 119.953 96.7314 120.051 96.6603 120.135C96.5892 120.219 96.5017 120.288 96.4031 120.338L81.1487 129.144C80.9543 129.267 80.7205 129.311 80.4945 129.269C80.2685 129.226 80.067 129.099 79.9305 128.914C79.8747 128.819 79.8391 128.713 79.826 128.603C79.8129 128.494 79.8225 128.383 79.8542 128.277C79.886 128.171 79.9392 128.073 80.0105 127.988C80.0819 127.904 80.1698 127.835 80.2689 127.786L95.527 118.98C95.7214 118.858 95.9552 118.813 96.1812 118.856C96.4072 118.898 96.6087 119.025 96.7452 119.21Z" fill="#455A64"/>
<path opacity="0.4" d="M111.387 111.69L99.8663 118.338C99.6724 118.46 99.4392 118.505 99.2139 118.462C98.9885 118.419 98.7876 118.293 98.6518 118.108C98.5967 118.012 98.5617 117.906 98.5492 117.797C98.5366 117.687 98.5467 117.576 98.5788 117.47C98.6108 117.364 98.6642 117.266 98.7356 117.182C98.807 117.098 98.8949 117.029 98.9939 116.98L110.503 110.336C110.698 110.213 110.933 110.168 111.159 110.211C111.386 110.254 111.588 110.38 111.725 110.566C111.78 110.661 111.816 110.766 111.828 110.876C111.841 110.985 111.831 111.096 111.8 111.201C111.768 111.306 111.715 111.404 111.644 111.488C111.573 111.572 111.485 111.641 111.387 111.69Z" fill="#455A64"/>
<path d="M101.949 90.8074L79.4646 103.776C79.3518 103.482 79.2503 103.185 79.145 102.892C79.1149 102.809 79.0848 102.723 79.0585 102.64L78.754 101.749C78.6524 101.448 78.5547 101.151 78.4607 100.847C76.9116 95.985 75.7873 90.6721 74.8887 84.6786L97.3471 71.7217C97.9952 76.5883 99.0223 81.3969 100.419 86.1037C100.558 86.5699 100.697 87.0286 100.844 87.4836C100.964 87.8596 101.085 88.2356 101.22 88.6304C101.453 89.3674 101.696 90.093 101.949 90.8074Z" fill="#099FCE"/>
<path opacity="0.5" d="M101.949 90.8074L79.4646 103.776C79.3518 103.482 79.2503 103.185 79.145 102.892C79.1149 102.809 79.0848 102.723 79.0585 102.64L78.754 101.749C78.6524 101.448 78.5547 101.151 78.4607 100.847C76.9116 95.985 75.7873 90.6721 74.8887 84.6786L97.3471 71.7217C97.9952 76.5883 99.0223 81.3969 100.419 86.1037C100.558 86.5699 100.697 87.0286 100.844 87.4836C100.964 87.8596 101.085 88.2356 101.22 88.6304C101.453 89.3674 101.696 90.093 101.949 90.8074Z" fill="black"/>
<path d="M101.95 90.8076L79.4649 103.776C79.3521 103.483 79.2505 103.186 79.1453 102.892C79.1152 102.81 79.0851 102.723 79.0588 102.64L78.7542 101.749C78.6527 101.448 78.5549 101.151 78.4609 100.847C79.2994 97.35 82.1608 85.7279 82.1608 85.7279L94.7267 92.8079L92.1624 90.2399L94.189 83.6523L100.419 86.1039C100.56 86.5676 100.699 87.0263 100.837 87.48C100.961 87.856 101.081 88.232 101.213 88.6268C101.451 89.3663 101.696 90.0932 101.95 90.8076Z" fill="#099FCE"/>
<path d="M89.7294 78.8958C90.5641 78.4107 91.3951 78.8958 91.6094 80.0012C91.8237 81.1066 91.3575 82.3625 90.5228 82.8438C89.688 83.325 88.8044 82.8438 88.5826 81.7496C88.3608 80.6554 88.8947 79.3808 89.7294 78.8958Z" fill="#099FCE"/>
<path d="M171.832 91.0152C165.695 88.7592 155.908 88.7592 149.975 91.0152C144.042 93.2712 144.045 96.941 149.975 99.2008C155.904 101.461 165.695 101.457 171.832 99.2008C177.968 96.9448 177.949 93.275 171.832 91.0152Z" fill="#733232"/>
<path d="M176.72 83.5771L145.241 83.611L147.606 120.696H147.636C147.787 122.046 149.046 123.381 151.453 124.411C156.581 126.61 165.034 126.61 170.339 124.411C172.825 123.377 174.129 122.046 174.283 120.696H174.314L176.72 83.5771Z" fill="#FAFAFA"/>
<path d="M145.223 83.6111L145.708 91.1311C146.532 91.6932 147.415 92.1659 148.34 92.5411C155.149 95.3611 166.388 95.3573 173.415 92.5411C173.72 92.417 173.975 92.2854 174.25 92.1651C174.934 91.836 175.593 91.459 176.224 91.0371L176.705 83.5547L145.223 83.6111Z" fill="#EBEBEB"/>
<path d="M178.694 84.6758V79.0057H175.024C174.501 78.7257 173.962 78.4746 173.411 78.2537C166.369 75.4337 155.145 75.4337 148.336 78.2537C147.809 78.4781 147.295 78.7291 146.794 79.0057H143.229V84.6758C143.229 86.5219 144.933 88.3718 148.336 89.7818C155.145 92.5981 166.384 92.5981 173.411 89.7818C176.934 88.3606 178.694 86.5219 178.694 84.6758Z" fill="#099FCE"/>
<g opacity="0.5">
<path d="M178.694 84.6758V79.0057H175.024C174.501 78.7257 173.962 78.4746 173.411 78.2537C166.369 75.4337 155.145 75.4337 148.336 78.2537C147.809 78.4781 147.295 78.7291 146.794 79.0057H143.229V84.6758C143.229 86.5219 144.933 88.3718 148.336 89.7818C155.145 92.5981 166.384 92.5981 173.411 89.7818C176.934 88.3606 178.694 86.5219 178.694 84.6758Z" fill="black"/>
</g>
<path d="M173.411 73.8993C166.368 71.083 155.144 71.083 148.335 73.8993C141.526 76.7155 141.53 81.2915 148.335 84.1077C155.141 86.9239 166.383 86.9277 173.411 84.1077C180.438 81.2877 180.453 76.7042 173.411 73.8993Z" fill="#099FCE"/>
<g opacity="0.2">
<path d="M173.412 73.8993C166.369 71.083 155.145 71.083 148.336 73.8993C141.527 76.7155 141.53 81.2915 148.336 84.1077C155.142 86.9239 166.384 86.9277 173.412 84.1077C180.439 81.2877 180.454 76.7042 173.412 73.8993Z" fill="black"/>
</g>
<path d="M171.223 74.3579C165.421 72.132 156.164 72.132 150.543 74.3579C144.922 76.5838 144.933 80.1972 150.543 82.4269C156.153 84.6566 165.41 84.6528 171.223 82.4269C177.036 80.201 177.028 76.5876 171.223 74.3579Z" fill="#099FCE"/>
<g opacity="0.5">
<path d="M171.223 74.3579C165.421 72.132 156.164 72.132 150.543 74.3579C144.922 76.5838 144.933 80.1972 150.543 82.4269C156.153 84.6566 165.41 84.6528 171.223 82.4269C177.036 80.201 177.028 76.5876 171.223 74.3579Z" fill="black"/>
</g>
<path d="M175.445 77.6405L174.31 72.9668H147.61L146.471 77.6405H175.445Z" fill="#099FCE"/>
<g opacity="0.5">
<path d="M175.445 77.6405L174.31 72.9668H147.61L146.471 77.6405H175.445Z" fill="black"/>
</g>
<path d="M170.388 69.9777C165.056 68.0413 156.555 68.0413 151.404 69.9777C146.253 71.9141 146.249 75.0612 151.404 76.9976C156.559 78.934 165.056 78.9378 170.388 76.9976C175.72 75.0574 175.72 71.9179 170.388 69.9777Z" fill="#099FCE"/>
<g opacity="0.2">
<path d="M170.388 69.9777C165.056 68.0413 156.555 68.0413 151.404 69.9777C146.253 71.9141 146.249 75.0612 151.404 76.9976C156.559 78.934 165.056 78.9378 170.388 76.9976C175.72 75.0574 175.72 71.9179 170.388 69.9777Z" fill="black"/>
</g>
<path d="M172.539 73.4931C172.539 73.5683 172.388 73.8165 171.948 74.1586C171.275 74.6292 170.538 75.0014 169.76 75.2641C167.406 76.1138 164.15 76.6102 160.83 76.6102C157.51 76.6102 154.306 76.1214 152.047 75.2754C151.288 75.0114 150.575 74.6309 149.934 74.1474C149.501 73.7977 149.381 73.5382 149.381 73.4743C149.381 73.3427 149.843 72.523 152.047 71.6921C154.25 70.8611 157.51 70.3535 160.83 70.3535C164.15 70.3535 167.406 70.8423 169.76 71.7034C171.975 72.5155 172.527 73.3202 172.539 73.4931Z" fill="#099FCE"/>
<g opacity="0.5">
<path d="M172.539 73.4931C172.539 73.5683 172.388 73.8165 171.948 74.1586C171.275 74.6292 170.538 75.0014 169.76 75.2641C167.406 76.1138 164.15 76.6102 160.83 76.6102C157.51 76.6102 154.306 76.1214 152.047 75.2754C151.288 75.0114 150.575 74.6309 149.934 74.1474C149.501 73.7977 149.381 73.5382 149.381 73.4743C149.381 73.3427 149.843 72.523 152.047 71.6921C154.25 70.8611 157.51 70.3535 160.83 70.3535C164.15 70.3535 167.406 70.8423 169.76 71.7034C171.975 72.5155 172.527 73.3202 172.539 73.4931Z" fill="black"/>
</g>
<path d="M171.948 74.1585C171.275 74.629 170.538 75.0013 169.76 75.2639C167.406 76.1137 164.15 76.61 160.83 76.61C157.51 76.61 154.306 76.1212 152.047 75.2752C151.288 75.0113 150.575 74.6307 149.934 74.1472C150.573 73.6607 151.287 73.2799 152.047 73.0192C154.303 72.1695 157.51 71.6807 160.83 71.6807C164.15 71.6807 167.406 72.1695 169.76 73.0267C170.541 73.2941 171.279 73.6755 171.948 74.1585Z" fill="#099FCE"/>
<g opacity="0.5">
<path d="M166.605 74.2791C167.379 73.8392 168.327 73.6587 168.714 73.8767C169.101 74.0948 168.786 74.6287 168.011 75.0799C167.236 75.5311 166.289 75.7041 165.902 75.4823C165.514 75.2604 165.815 74.719 166.605 74.2791Z" fill="black"/>
</g>
<path d="M146.403 108.717C146.403 110.112 147.801 111.507 150.595 112.571C156.182 114.699 165.402 114.699 171.185 112.571C174.069 111.51 175.516 110.115 175.52 108.724L176.415 95.1055C176.415 96.5869 174.881 98.0683 171.813 99.2001C165.676 101.456 155.889 101.456 149.956 99.2001C146.989 98.0721 145.508 96.5869 145.508 95.1055L146.403 108.717Z" fill="#B16668"/>
<path d="M156.01 109.522C155.491 108.822 155.205 107.965 154.784 107.209C154.009 105.773 152.746 104.661 151.223 104.074C151.122 104.034 151.01 104.033 150.909 104.07C150.807 104.108 150.722 104.181 150.671 104.277C149.896 105.852 150.37 108.059 151.972 109.661C153.573 111.263 155.732 111.74 157.318 110.999C157.409 110.958 157.431 110.781 157.36 110.74C156.831 110.432 156.371 110.017 156.01 109.522Z" fill="#733232"/>
<path d="M152.077 103.645C152.906 103.966 153.67 104.433 154.333 105.025C155.021 105.647 155.575 106.403 155.961 107.247C156.559 108.518 157.126 109.304 158.002 109.958C158.049 109.993 158.101 110.017 158.157 110.031C158.213 110.045 158.272 110.048 158.329 110.039C158.386 110.03 158.44 110.01 158.489 109.98C158.539 109.95 158.582 109.911 158.615 109.864C159.664 108.277 159.247 105.852 157.521 104.126C155.886 102.487 153.615 102.017 152.032 102.863C151.961 102.903 151.902 102.962 151.863 103.034C151.824 103.106 151.806 103.187 151.81 103.268C151.815 103.35 151.842 103.428 151.89 103.495C151.937 103.561 152.002 103.614 152.077 103.645Z" fill="#733232"/>
<path d="M131.348 27.8006V23.9579L128.103 23.6871C128.056 23.6816 128.009 23.6908 127.968 23.7135L124.73 25.5671C124.698 25.5849 124.67 25.6099 124.649 25.6403C124.628 25.6706 124.615 25.7054 124.61 25.7419C124.605 25.7784 124.608 25.8156 124.62 25.8506C124.632 25.8855 124.651 25.9172 124.678 25.9431L128.118 29.6693L131.348 27.8006Z" fill="#099FCE"/>
<path d="M128.119 29.6474L124.678 25.9212C124.645 25.8861 124.623 25.8417 124.616 25.794C124.609 25.7462 124.616 25.6974 124.637 25.654C124.659 25.6107 124.693 25.5748 124.735 25.5514C124.777 25.5279 124.826 25.5179 124.874 25.5227L128.119 25.8047V29.6474Z" fill="#099FCE"/>
<path d="M131.348 23.9586L128.118 25.8048L124.874 25.5228C124.836 25.515 124.798 25.515 124.761 25.5228C125.02 25.3686 127.851 23.7518 127.968 23.6879C128.009 23.6636 128.057 23.6543 128.103 23.6616L131.348 23.9586Z" fill="#099FCE"/>
<path opacity="0.5" d="M131.348 23.9586L128.118 25.8048L124.874 25.5228C124.836 25.515 124.798 25.515 124.761 25.5228C125.02 25.3686 127.851 23.7518 127.968 23.6879C128.009 23.6636 128.057 23.6543 128.103 23.6616L131.348 23.9586Z" fill="white"/>
<path d="M128.122 21.4691C128.144 21.0628 128.261 20.6674 128.465 20.3152C128.669 19.963 128.953 19.664 129.295 19.4425L130.246 18.8897C130.608 18.7061 131.009 18.6104 131.415 18.6104C131.822 18.6104 132.222 18.7061 132.585 18.8897L142.737 24.7516C143.077 24.974 143.36 25.2733 143.563 25.6254C143.766 25.9774 143.884 26.3724 143.906 26.7782V38.5057C143.885 38.9117 143.768 39.307 143.564 39.6592C143.361 40.0114 143.078 40.3106 142.737 40.5323L141.785 41.0813C141.423 41.2667 141.021 41.3634 140.614 41.3634C140.207 41.3634 139.806 41.2667 139.443 41.0813L136.435 39.3517L132.54 37.0957L129.283 35.2157C128.943 34.9945 128.659 34.6961 128.455 34.3446C128.251 33.9931 128.133 33.5985 128.11 33.1928L128.122 21.4691Z" fill="#099FCE"/>
<path d="M137.86 31.7457C137.853 31.0432 137.706 30.3493 137.428 29.704C137.171 29.0235 136.712 28.4382 136.112 28.027C135.224 27.5044 134.484 28.5685 134.367 29.8206C134.262 28.4369 133.532 26.508 132.641 25.9891C132.447 25.8423 132.205 25.7739 131.962 25.7976C131.72 25.8213 131.495 25.9353 131.333 26.117C131.014 26.5511 130.855 27.0829 130.885 27.621C130.885 29.7416 132.153 31.6667 133.217 33.6896L134.345 35.814L135.473 35.0206C136.563 34.2837 137.849 33.8663 137.86 31.7457Z" fill="#FAFAFA"/>
<path opacity="0.2" d="M143.907 38.5057C143.885 38.9118 143.768 39.307 143.565 39.6592C143.362 40.0114 143.078 40.3106 142.737 40.5323L141.786 41.0813C141.456 41.2479 141.095 41.3424 140.726 41.3586C140.357 41.3748 139.989 41.3123 139.646 41.1753C140.195 41.3858 140.617 41.0738 140.617 40.4233V28.6808C140.602 28.2733 140.484 27.8762 140.274 27.5265L143.564 25.6465C143.774 25.9947 143.892 26.3907 143.907 26.797V38.5057Z" fill="black"/>
<path opacity="0.5" d="M128.163 21.1349C128.298 20.6386 128.75 20.4807 129.291 20.7928L139.443 26.6546C139.788 26.8698 140.072 27.1702 140.267 27.5269L143.557 25.6469C143.362 25.2902 143.078 24.9898 142.733 24.7746L132.581 18.9128C132.218 18.7293 131.817 18.6338 131.41 18.6338C131.003 18.6338 130.602 18.7293 130.239 18.9128L129.284 19.4617C128.994 19.6506 128.745 19.8962 128.552 20.1837C128.36 20.4713 128.227 20.7948 128.163 21.1349Z" fill="white"/>
<path d="M131.348 53.0679V49.2252L128.103 48.9395C128.055 48.935 128.008 48.9456 127.967 48.9695L124.73 50.8195C124.697 50.8366 124.669 50.8614 124.647 50.8918C124.626 50.9221 124.612 50.9571 124.607 50.9939C124.602 51.0307 124.605 51.0682 124.618 51.1032C124.63 51.1383 124.65 51.1699 124.677 51.1955L128.118 54.9254L131.348 53.0679Z" fill="#099FCE"/>
<path d="M128.118 54.9148L124.677 51.1849C124.644 51.1498 124.622 51.1054 124.615 51.0577C124.608 51.0099 124.615 50.9611 124.637 50.9177C124.658 50.8743 124.692 50.8385 124.734 50.815C124.776 50.7916 124.825 50.7815 124.873 50.7863L128.118 51.0721V54.9148Z" fill="#099FCE"/>
<path d="M131.347 49.2215L128.117 51.0714L124.873 50.7856C124.834 50.7839 124.796 50.7903 124.76 50.8044C125.019 50.6503 127.85 49.0297 127.967 48.9695C128.008 48.9456 128.055 48.935 128.102 48.9395L131.347 49.2215Z" fill="#099FCE"/>
<path opacity="0.5" d="M131.347 49.2215L128.117 51.0714L124.873 50.7856C124.834 50.7839 124.796 50.7903 124.76 50.8044C125.019 50.6503 127.85 49.0297 127.967 48.9695C128.008 48.9456 128.055 48.935 128.102 48.9395L131.347 49.2215Z" fill="white"/>
<path d="M128.122 46.7329C128.144 46.3267 128.262 45.9316 128.466 45.5795C128.67 45.2274 128.954 44.9282 129.295 44.7063L130.246 44.1573C130.608 43.9736 131.009 43.8779 131.415 43.8779C131.822 43.8779 132.222 43.9736 132.585 44.1573L142.737 50.0192C143.078 50.2409 143.361 50.54 143.564 50.8922C143.768 51.2445 143.885 51.6397 143.906 52.0458V63.7732C143.884 64.1792 143.767 64.5742 143.564 64.9263C143.36 65.2784 143.077 65.5777 142.737 65.7999L141.785 66.3488C141.422 66.5322 141.021 66.6278 140.614 66.6278C140.207 66.6278 139.806 66.5322 139.443 66.3488L136.435 64.6192L132.54 62.3632L129.283 60.4832C128.942 60.2617 128.658 59.9627 128.454 59.6105C128.25 59.2583 128.132 58.8629 128.11 58.4566L128.122 46.7329Z" fill="#099FCE"/>
<path d="M134.002 51.2863L133.107 53.1663C133.097 53.1935 133.081 53.2183 133.06 53.239C133.039 53.2597 133.015 53.2758 132.987 53.2865C132.96 53.2971 132.931 53.3019 132.902 53.3006C132.873 53.2994 132.844 53.292 132.818 53.2791L130.817 52.5271C130.502 52.403 130.374 52.8505 130.603 53.2791L132.051 56.0239C132.139 56.1818 132.177 56.3628 132.16 56.5428L131.818 59.0018C131.765 59.3778 132.096 59.9042 132.382 59.8704L134.168 59.6485C134.243 59.648 134.317 59.6668 134.383 59.703C134.448 59.7392 134.504 59.7916 134.544 59.8553L136.333 62.1414C136.615 62.5174 136.946 62.3745 136.894 61.9233L136.551 59.0695C136.537 59.0024 136.539 58.9326 136.559 58.8668C136.579 58.801 136.615 58.7413 136.664 58.6935L138.108 57.6482C138.341 57.4828 138.213 56.8962 137.894 56.6443L135.897 55.1027C135.757 54.9848 135.655 54.8277 135.604 54.6515L134.713 51.7225C134.555 51.2224 134.145 50.9855 134.002 51.2863Z" fill="#FAFAFA"/>
<path opacity="0.2" d="M143.906 63.7734C143.884 64.1793 143.766 64.5743 143.563 64.9264C143.36 65.2786 143.077 65.5778 142.736 65.8L141.785 66.349C141.455 66.5137 141.094 66.6072 140.725 66.6234C140.357 66.6396 139.989 66.5781 139.646 66.443C140.194 66.6498 140.616 66.3414 140.616 65.6722V53.9447C140.601 53.5383 140.483 53.1424 140.273 52.7942L143.563 50.8916C143.773 51.2414 143.891 51.6384 143.906 52.0459V63.7734Z" fill="black"/>
<path opacity="0.5" d="M128.163 46.4024C128.298 45.906 128.75 45.7481 129.291 46.0564L139.443 51.922C139.79 52.1352 140.074 52.4361 140.267 52.7944L143.557 50.9144C143.363 50.5569 143.079 50.2563 142.733 50.042L132.581 44.1764C132.218 43.993 131.817 43.8975 131.41 43.8975C131.003 43.8975 130.602 43.993 130.239 44.1764L129.284 44.7292C128.994 44.918 128.745 45.1636 128.552 45.4512C128.36 45.7387 128.227 46.0623 128.163 46.4024Z" fill="white"/>
<path d="M91.3305 126.309L82.2388 128.723L80.4227 129.204C80.3108 129.234 80.1919 129.224 80.0873 129.174C79.9826 129.124 79.8989 129.039 79.8512 128.934C79.8115 128.854 79.7947 128.766 79.8027 128.677C79.8107 128.589 79.8431 128.505 79.8963 128.434L81.1822 126.772L86.8222 119.447L88.627 122.211L91.3305 126.309Z" fill="#ED9B80"/>
<path d="M88.6457 122.2L81.2573 127.862L79.8473 128.938C79.8076 128.858 79.7908 128.77 79.7988 128.681C79.8068 128.593 79.8392 128.509 79.8924 128.438L81.1783 126.776L86.8183 119.451L88.6457 122.2Z" fill="#FFBDA7"/>
<path d="M82.2388 128.724L80.4227 129.205C80.3108 129.235 80.1919 129.224 80.0873 129.175C79.9826 129.125 79.8989 129.04 79.8512 128.934C79.8115 128.855 79.7947 128.766 79.8027 128.678C79.8107 128.59 79.8431 128.505 79.8963 128.434L81.1822 126.772C81.0987 127.139 81.1222 127.521 81.2499 127.874C81.3431 128.079 81.4798 128.261 81.6506 128.408C81.8214 128.555 82.0221 128.663 82.2388 128.724Z" fill="#37474F"/>
<path d="M127.941 92.1201L127.039 92.718L125.948 93.4399L86.8554 119.433C86.562 120.719 86.7662 122.069 87.4269 123.212C88.3594 124.975 90.0326 126.306 91.3449 126.302L130.163 100.494L132.242 99.11C130.847 99.9334 126.553 92.9548 127.941 92.1201Z" fill="#263238"/>
<path d="M127.039 92.71L125.948 93.4319L86.8554 119.432C86.562 120.719 86.7662 122.069 87.4269 123.211L127.659 96.1128L127.039 92.71Z" fill="#37474F"/>
<path d="M124.502 94.376L122.49 95.7183C121.896 96.0943 122.347 97.5983 123.174 99.1023C124.268 101.125 126.013 103.197 126.806 102.708L128.284 101.712L128.818 101.358C128.025 101.847 126.276 99.7753 125.182 97.7525C124.392 96.2936 123.945 94.8535 124.43 94.4211C124.447 94.3976 124.473 94.3816 124.502 94.376Z" fill="#F0F0F0"/>
<path d="M125.181 97.7604C124.392 96.3015 123.944 94.8615 124.429 94.4291C124.442 94.4104 124.461 94.396 124.482 94.3877L122.47 95.73C121.876 96.106 122.328 97.61 123.155 99.114L125.163 97.7642L125.181 97.7604Z" fill="#FAFAFA"/>
<path d="M124.001 94.7215C122.617 95.5788 126.93 102.565 128.317 101.708L130.336 100.369C128.949 101.226 124.636 94.2402 126.02 93.3867L124.001 94.7215Z" fill="#099FCE"/>
<path d="M127.942 92.1201L125.949 93.4399C124.584 94.2708 128.683 101.054 130.149 100.501C130.178 100.493 130.206 100.481 130.232 100.464L132.228 99.1175C130.848 99.9334 126.554 92.9548 127.942 92.1201Z" fill="#F0F0F0"/>
<path d="M136.39 86.5063L127.941 92.12C127.347 92.496 127.787 93.9586 128.599 95.4739C129.686 97.5005 131.431 99.6099 132.228 99.1173L140.353 93.7255C142.353 92.6238 140.789 88.4953 138.725 86.9274C137.969 86.3258 137.138 86.104 136.39 86.5063Z" fill="#ED9B80"/>
<path d="M136.39 86.5065L127.941 92.1201C127.347 92.4961 127.787 93.9588 128.599 95.4741L137.116 90.0935C137.116 90.0935 136.108 87.9992 136.552 87.1607C136.995 86.3222 137.834 86.4087 138.736 86.9238C137.969 86.326 137.138 86.1041 136.39 86.5065Z" fill="#FFBDA7"/>
<path opacity="0.4" d="M126.019 93.3867L124 94.7215C123.41 95.0975 123.861 96.579 124.681 98.1055L126.692 96.7519C125.877 95.2329 125.429 93.7514 126.019 93.3867Z" fill="white"/>
<path d="M127.942 92.1201L125.949 93.4399C125.355 93.8159 125.795 95.2898 126.607 96.8239L128.6 95.4853C127.792 93.9512 127.348 92.4698 127.942 92.1201Z" fill="#FAFAFA"/>
<path d="M115.432 161.436C115.583 161.93 115.709 162.432 115.808 162.94C115.917 163.507 116.067 164.444 115.864 164.872C115.661 165.301 114.89 165.56 113.695 165.534C112.92 165.534 111.709 166.027 110.879 166.478C110.043 166.877 109.102 166.996 108.194 166.816C107.134 166.677 106.039 166.064 105.874 165.602C105.708 165.139 105.93 164.951 108.45 163.917C108.472 163.917 111.104 162.759 112.334 161.439L115.432 161.436Z" fill="#263238"/>
<path d="M112.481 158.296L112.319 160.586C112.295 160.922 112.199 161.249 112.037 161.544C111.875 161.84 111.65 162.096 111.379 162.297C110.456 162.941 109.474 163.496 108.446 163.955L107.536 164.312C107.469 164.553 107.563 164.929 108.664 165.113C110.364 165.395 114.285 162.658 114.285 162.658C114.94 162.248 115.413 161.748 115.413 161.428C115.461 160.277 115.587 159.13 115.789 157.995L112.481 158.296Z" fill="#FFA8A7"/>
<path d="M129.002 155.743L127.994 153.408L130.528 152.002L131.713 154.867C132.089 155.503 132.649 155.555 132.901 155.897C133.153 156.239 132.472 160.879 131.619 162.15C130.765 163.421 128.727 162.421 128.4 162.067C128.073 161.714 129.712 161.255 129.769 160.939C129.774 159.905 129.715 158.872 129.592 157.845C129.531 157.113 129.331 156.4 129.002 155.743Z" fill="#FFA8A7"/>
<path d="M132.182 155.326C131.915 155.77 131.904 156.653 131.769 157.909C131.633 159.165 131.505 161.161 130.795 161.692C129.968 162.305 128.351 161.872 129.197 161.387C129.43 161.255 129.464 161.203 129.595 161.124C129.877 160.951 129.776 160.801 129.776 160.801C129.403 161.063 129.002 161.284 128.58 161.459C128.293 161.547 128.044 161.73 127.874 161.978C127.704 162.226 127.623 162.524 127.644 162.823C127.693 162.979 127.776 163.122 127.887 163.242C127.998 163.362 128.135 163.455 128.287 163.515C129.009 163.697 129.763 163.708 130.49 163.549C132.02 163.218 132.889 162.59 133.073 161.357C133.299 159.853 134.013 158.116 134.239 157.24C134.513 156.183 133.148 155.247 132.182 155.326Z" fill="#263238"/>
<path d="M114.789 121.967C114.789 121.967 120.271 137.383 120.764 139.071C121.129 140.473 121.661 141.826 122.347 143.102C122.933 144.2 129.002 155.743 129.002 155.743C130.916 155.578 131.483 154.296 131.483 154.296C131.483 154.296 129.043 143.967 128.475 142.102C128.158 140.936 127.563 139.864 126.742 138.977L125.633 127.37C125.419 125.269 125.144 123.768 122.757 119.76L121.253 117.861L114.789 121.967Z" fill="#FFA8A7"/>
<path d="M117.759 120.887C119.011 123.102 120.346 125.053 120.361 127.478C120.384 131.863 117.861 138.006 117.244 141.721C117.638 143.055 117.753 144.455 117.583 145.835C117.357 147.373 115.56 159.521 115.56 159.521C115.56 159.521 113.826 160.506 112.386 159.626C112.386 159.626 111.401 142.285 111.499 135.562C111.597 128.84 112.495 119.368 112.495 119.368L117.759 120.887Z" fill="#FFA8A7"/>
<path d="M114.895 103.276L115.323 107.059L119.053 107.491L118.515 102.472L114.895 103.276Z" fill="#FFA8A7"/>
<path d="M115.161 94.0934C114.255 94.4882 112.57 94.2062 111.98 98.4099C111.517 101.722 112.115 102.858 112.536 103.32C112.822 103.636 114.665 103.926 115.503 103.723C116.552 103.475 118.849 102.523 120.015 100.884C121.376 98.9551 121.809 96.2893 120.463 95.1425C118.56 93.5294 115.928 93.7625 115.161 94.0934Z" fill="#FFA8A7"/>
<path d="M115.586 103.182C114.712 103.386 113.818 103.492 112.92 103.497C113.579 103.692 114.264 103.784 114.95 103.768C115.638 103.43 115.586 103.182 115.586 103.182Z" fill="#F28F8F"/>
<path d="M112.048 98.2305C112.048 98.2305 111.055 99.5352 111.16 99.6856C111.363 99.8376 111.591 99.9533 111.833 100.028L112.048 98.2305Z" fill="#F28F8F"/>
<path d="M112.931 92.7256C114.214 91.5976 116.864 91.1088 119.173 92.5865C119.569 92.629 119.951 92.7565 120.293 92.9602C120.635 93.164 120.929 93.4393 121.155 93.7672C121.117 93.6089 121.131 93.4427 121.196 93.2934C121.281 93.0954 121.441 92.9391 121.641 92.8588C121.842 92.7785 122.065 92.7806 122.264 92.8648L121.846 93.8424C121.923 93.7875 122.008 93.7467 122.098 93.722C122.201 93.6928 122.308 93.6842 122.414 93.6966C122.52 93.709 122.622 93.7422 122.715 93.7942C122.808 93.8463 122.89 93.9162 122.955 94C123.021 94.0837 123.07 94.1797 123.099 94.2823L121.888 94.6244C122.452 95.0907 123.099 96.9782 122.914 98.1701C122.478 100.937 121.106 101.595 118.628 103.539L117.85 103.66C116.68 103.66 115.751 102.457 115.496 102.047C115.305 101.73 115.199 101.37 115.187 101.001C115.26 101.104 115.363 101.181 115.482 101.221C115.601 101.262 115.729 101.264 115.849 101.227C116.15 101.151 116.421 100.989 116.631 100.761C117.346 99.9749 117.113 98.5988 116.406 98.407C116.208 98.3415 115.994 98.3366 115.794 98.3928C115.593 98.4491 115.413 98.564 115.278 98.7228L115.045 99.0988L114.879 99.8508L114.819 100.14C114.715 100.119 114.616 100.077 114.528 100.017C114.44 99.9571 114.365 99.8804 114.307 99.7912C114.249 99.702 114.209 99.6022 114.19 99.4976C114.171 99.393 114.172 99.2855 114.195 99.1816C114.21 99.1112 114.234 99.043 114.266 98.9785L114.176 98.8469C111.213 97.358 111.604 93.9063 112.931 92.7256Z" fill="#099FCE"/>
<path opacity="0.5" d="M112.931 92.7256C114.214 91.5976 116.864 91.1088 119.173 92.5865C119.569 92.629 119.951 92.7565 120.293 92.9602C120.635 93.164 120.929 93.4393 121.155 93.7672C121.117 93.6089 121.131 93.4427 121.196 93.2934C121.281 93.0954 121.441 92.9391 121.641 92.8588C121.842 92.7785 122.065 92.7806 122.264 92.8648L121.846 93.8424C121.923 93.7875 122.008 93.7467 122.098 93.722C122.201 93.6928 122.308 93.6842 122.414 93.6966C122.52 93.709 122.622 93.7422 122.715 93.7942C122.808 93.8463 122.89 93.9162 122.955 94C123.021 94.0837 123.07 94.1797 123.099 94.2823L121.888 94.6244C122.452 95.0907 123.099 96.9782 122.914 98.1701C122.478 100.937 121.106 101.595 118.628 103.539L117.85 103.66C116.68 103.66 115.751 102.457 115.496 102.047C115.305 101.73 115.199 101.37 115.187 101.001C115.26 101.104 115.363 101.181 115.482 101.221C115.601 101.262 115.729 101.264 115.849 101.227C116.15 101.151 116.421 100.989 116.631 100.761C117.346 99.9749 117.113 98.5988 116.406 98.407C116.208 98.3415 115.994 98.3366 115.794 98.3928C115.593 98.4491 115.413 98.564 115.278 98.7228L115.045 99.0988L114.879 99.8508L114.819 100.14C114.715 100.119 114.616 100.077 114.528 100.017C114.44 99.9571 114.365 99.8804 114.307 99.7912C114.249 99.702 114.209 99.6022 114.19 99.4976C114.171 99.393 114.172 99.2855 114.195 99.1816C114.21 99.1112 114.234 99.043 114.266 98.9785L114.176 98.8469C111.213 97.358 111.604 93.9063 112.931 92.7256Z" fill="black"/>
<path d="M120.951 104.998C122.079 105.069 123.207 106.228 123.294 107.502C123.38 108.777 121.79 112.898 121.79 112.898L120.951 104.998Z" fill="#FFA8A7"/>
<path d="M121.271 116.711C121.703 115.154 122.775 113.458 122.775 110.646C122.772 108.622 122.135 106.65 120.955 105.006L118.808 105.036C118.808 105.036 118.766 105.559 117.68 105.769C116.85 105.955 115.986 105.917 115.176 105.66C114.973 105.683 113.83 105.72 113.83 105.72L111.111 110.48C110.766 110.96 110.574 111.532 110.559 112.123C110.545 112.713 110.71 113.294 111.032 113.789C111.313 114.242 111.681 114.635 112.115 114.944C112.367 116.098 112.769 117.279 112.769 117.279C117.044 118.38 119.462 118.579 121.271 116.711Z" fill="#099FCE"/>
<path opacity="0.3" d="M121.271 116.711C121.703 115.154 122.775 113.458 122.775 110.646C122.772 108.622 122.135 106.65 120.955 105.006L118.808 105.036C118.808 105.036 118.766 105.559 117.68 105.769C116.85 105.955 115.986 105.917 115.176 105.66C114.973 105.683 113.83 105.72 113.83 105.72L111.111 110.48C110.766 110.96 110.574 111.532 110.559 112.123C110.545 112.713 110.71 113.294 111.032 113.789C111.313 114.242 111.681 114.635 112.115 114.944C112.367 116.098 112.769 117.279 112.769 117.279C117.044 118.38 119.462 118.579 121.271 116.711Z" fill="black"/>
<path d="M112.755 117.26V118.523C112.755 118.523 108.544 124.348 107.77 131.476C107.77 131.476 111.154 135.748 119.113 134.59C128.295 133.255 129.344 128.055 129.344 128.055C129.344 128.055 127.141 121.629 121.272 117.861V116.711L112.755 117.26Z" fill="#099FCE"/>
<path opacity="0.3" d="M112.755 117.26V118.523C112.755 118.523 108.544 124.348 107.77 131.476C107.77 131.476 111.154 135.748 119.113 134.59C128.295 133.255 129.344 128.055 129.344 128.055C129.344 128.055 127.141 121.629 121.272 117.861V116.711L112.755 117.26Z" fill="black"/>
<path d="M121.271 116.711C121.271 116.711 120.775 117.839 117.511 118.023C116.199 118.102 113.665 117.862 112.751 117.271V118.535C112.751 118.535 114.018 119.523 117.793 119.317C121.26 119.129 121.267 117.873 121.267 117.873L121.271 116.711Z" fill="#099FCE"/>
<path d="M113.867 105.716C110.558 105.821 110.859 106.539 109.073 109.476C108.073 111.123 106.573 114.168 105.783 115.729C104.099 116.447 100.339 116.797 98.831 116.436C98.5264 116.374 98.2572 116.198 98.079 115.943C97.6128 115.255 97.1353 115.15 96.575 114.65C96.1313 114.274 96.0073 113.92 95.8757 113.98C95.7297 114.066 95.6215 114.203 95.5727 114.365C95.5239 114.527 95.5381 114.701 95.6125 114.853C95.7365 115.148 95.9024 115.424 96.105 115.672C95.5067 115.439 94.9437 115.124 94.4318 114.736C93.1985 113.822 92.4653 113.815 92.5518 115.77C92.5969 116.996 93.3978 117.94 96.1426 118.737C97.1496 119.049 98.1774 119.291 99.2183 119.459C101.854 119.702 104.51 119.588 107.114 119.12C107.355 119.071 107.644 118.801 108.34 118.113C109.423 117.045 112.284 112.251 112.284 112.251C114.544 111.036 114.27 107.366 113.867 105.716Z" fill="#FFA8A7"/>
</svg>
