<svg width="178" height="243" viewBox="0 0 178 243" fill="none" xmlns="http://www.w3.org/2000/svg">
    <path
        d="M156.95 91.04C156.95 53.1588 126.241 22.45 88.36 22.45C50.4788 22.45 19.77 53.1588 19.77 91.04C19.77 128.921 50.4788 159.63 88.36 159.63C126.241 159.63 156.95 128.921 156.95 91.04Z"
        fill="#0B132A" />
    <path
        d="M113.35 27.26C103.24 32.49 90.3 27.57 90.3 27.57C90.3 27.57 93.76 14.17 103.88 8.94999C113.99 3.71999 126.93 8.63999 126.93 8.63999C126.93 8.63999 123.47 22.04 113.35 27.26Z"
        fill="#0D132A" />
    <path
        d="M101.54 15.85C99.14 23.4 90.35 27.35 90.35 27.35C90.35 27.35 85.46 19.05 87.87 11.5C90.28 3.95 99.06 0 99.06 0C99.06 0 103.95 8.3 101.54 15.85Z"
        fill="#0D132A" />
    <path
        d="M125.33 113.89C125.19 113.62 119.95 115.52 111.51 110.52L93.42 101.15C93.03 100.92 92.63 100.72 92.22 100.55C90.99 100.04 89.67 99.8 88.36 99.82C86.61 99.8 84.86 100.23 83.3 101.15L65.21 110.52C56.77 115.52 51.53 113.62 51.39 113.89C49.79 117.04 56.1 121.13 58.96 123.05L84.74 146.85C85.8 147.69 87.08 148.08 88.36 148.05C89.64 148.08 90.92 147.68 91.98 146.85L117.76 123.05C120.62 121.13 126.93 117.04 125.33 113.89Z"
        fill="#ECCC8C" />
    <path
        d="M59.23 123.05L85.35 147.01C87.31 148.09 89.69 148.09 91.66 147.01L117.78 123.05L92.24 150.45C90.06 152.19 86.96 152.19 84.78 150.45L59.24 123.05H59.23Z"
        fill="#CC8D20" />
    <g opacity="0.7">
        <path
            d="M88.51 99.82C88.51 99.82 88.41 99.82 88.37 99.82C86.62 99.8 84.87 100.23 83.31 101.15L65.22 110.52C56.78 115.52 51.54 113.62 51.4 113.89C49.8 117.04 56.11 121.13 58.97 123.05L84.75 146.85C85.81 147.69 87.09 148.08 88.37 148.05C88.42 148.05 88.47 148.05 88.51 148.05V99.83V99.82Z"
            fill="#DCAD50" />
    </g>
    <path
        d="M55.39 111.42C70.6165 111.42 82.96 99.0765 82.96 83.85C82.96 68.6235 70.6165 56.28 55.39 56.28C40.1635 56.28 27.82 68.6235 27.82 83.85C27.82 99.0765 40.1635 111.42 55.39 111.42Z"
        fill="white" stroke="#049DCB" stroke-width="6" stroke-miterlimit="10" />
    <path
        d="M121.33 111.42C136.556 111.42 148.9 99.0765 148.9 83.85C148.9 68.6235 136.556 56.28 121.33 56.28C106.104 56.28 93.76 68.6235 93.76 83.85C93.76 99.0765 106.104 111.42 121.33 111.42Z"
        fill="white" stroke="#049DCB" stroke-width="6" stroke-miterlimit="10" />
    <path d="M80.51 95.21C80.51 95.21 87.9 86.91 96.2 95.21" stroke="#049DCB" stroke-width="6"
        stroke-miterlimit="10" />
    <path
        d="M114.18 78.59C109.27 78.59 105.28 82.57 105.28 87.49C105.28 88.45 105.44 89.38 105.72 90.25C106.47 88.63 108.1 87.49 110 87.49C112.61 87.49 114.72 89.6 114.72 92.21C114.72 93.91 113.81 95.39 112.47 96.22C113.02 96.33 113.59 96.39 114.18 96.39C119.09 96.39 123.08 92.41 123.08 87.49C123.08 82.57 119.1 78.59 114.18 78.59Z"
        fill="#15004F" />
    <path
        d="M62.83 78.59C57.92 78.59 53.93 82.57 53.93 87.49C53.93 88.45 54.09 89.38 54.37 90.25C55.12 88.63 56.75 87.49 58.65 87.49C61.26 87.49 63.37 89.6 63.37 92.21C63.37 93.91 62.46 95.39 61.12 96.22C61.67 96.33 62.24 96.39 62.83 96.39C67.74 96.39 71.73 92.41 71.73 87.49C71.73 82.57 67.75 78.59 62.83 78.59Z"
        fill="#15004F" />
    <path
        d="M36.09 42.62C41.38 39.36 54.24 32.81 70.15 34.26C71.76 34.41 73.04 35.96 73.08 37.83L73.19 42.59C73.24 44.55 71.91 46.14 70.22 46.15C63.89 46.19 49.08 46.69 39.11 50.24C37.69 50.75 36.13 50.01 35.4 48.47L34.9 47.4C34.09 45.66 34.61 43.52 36.08 42.62H36.09Z"
        fill="#056986" />
    <path
        d="M140.93 42.62C135.64 39.36 122.78 32.81 106.87 34.26C105.26 34.41 103.98 35.96 103.94 37.83L103.83 42.59C103.78 44.55 105.11 46.14 106.8 46.15C113.13 46.19 127.94 46.69 137.91 50.24C139.33 50.75 140.89 50.01 141.62 48.47L142.12 47.4C142.93 45.66 142.41 43.52 140.94 42.62H140.93Z"
        fill="#056986" />
    <path
        d="M36.86 242.09C35.15 242.09 33.92 241.78 33.15 241.15C32.38 240.52 31.97 239.67 31.91 238.59L32.51 235.77C32.05 236.51 31.29 237.38 30.21 238.37C29.13 239.37 27.72 240.25 25.99 241.02C24.25 241.79 22.14 242.17 19.63 242.17C16.96 242.17 14.44 241.62 12.08 240.51C9.72 239.4 7.63 237.87 5.81 235.9C3.99 233.94 2.57 231.69 1.54 229.16C0.52 226.63 0 223.91 0 221.01C0 218.11 0.51 215.59 1.54 213.12C2.56 210.65 4 208.44 5.85 206.51C7.7 204.58 9.79 203.05 12.12 201.94C14.45 200.83 16.95 200.28 19.63 200.28C21.9 200.28 23.85 200.59 25.48 201.22C27.1 201.85 28.48 202.63 29.62 203.57C30.76 204.51 31.7 205.49 32.44 206.51L32.01 204.04C31.95 202.79 32.32 201.84 33.12 201.18C33.92 200.53 35.2 200.2 36.96 200.2C38.5 200.2 39.62 200.44 40.33 200.93C41.04 201.41 41.48 202.08 41.65 202.93C41.82 203.78 41.91 204.72 41.91 205.75V236.9C41.91 237.87 41.82 238.75 41.65 239.55C41.48 240.35 41.04 240.97 40.33 241.43C39.62 241.89 38.47 242.11 36.87 242.11L36.86 242.09ZM21.16 232.19C23.04 232.19 24.76 231.71 26.32 230.74C27.88 229.77 29.12 228.45 30.03 226.77C30.94 225.09 31.4 223.23 31.4 221.18C31.4 219.02 30.93 217.11 29.99 215.46C29.05 213.81 27.78 212.5 26.19 211.54C24.6 210.57 22.86 210.09 20.98 210.09C18.88 210.09 17 210.59 15.35 211.58C13.7 212.58 12.41 213.91 11.47 215.59C10.53 217.27 10.06 219.16 10.06 221.26C10.06 223.36 10.54 225.16 11.51 226.81C12.48 228.46 13.8 229.77 15.48 230.73C17.16 231.7 19.05 232.18 21.15 232.18L21.16 232.19Z"
        fill="#056986" />
    <path
        d="M55.3 242.18C53.71 242.18 52.55 241.95 51.84 241.5C51.13 241.05 50.69 240.42 50.52 239.62C50.35 238.82 50.26 237.97 50.26 237.06V205.23C50.26 204.26 50.36 203.41 50.56 202.67C50.76 201.93 51.21 201.33 51.93 200.88C52.64 200.42 53.82 200.2 55.47 200.2C57.12 200.2 58.33 200.54 59.1 201.22C59.87 201.9 60.25 203.01 60.25 204.55L59.48 206.85C59.76 206.22 60.25 205.54 60.93 204.8C61.61 204.06 62.45 203.32 63.45 202.58C64.44 201.84 65.57 201.24 66.82 200.79C68.07 200.33 69.38 200.11 70.75 200.11C72.63 200.11 74.35 200.42 75.91 201.05C77.47 201.68 78.87 202.59 80.09 203.78C81.31 204.97 82.38 206.43 83.29 208.13C84.26 206.65 85.34 205.3 86.53 204.08C87.72 202.86 89.12 201.89 90.71 201.18C92.3 200.47 94.09 200.11 96.09 200.11C99.39 200.11 102.16 200.94 104.41 202.59C106.66 204.24 108.35 206.59 109.49 209.63C110.63 212.67 111.2 216.3 111.2 220.51V237.06C111.2 238.03 111.11 238.89 110.94 239.66C110.77 240.43 110.33 241.04 109.62 241.49C108.91 241.95 107.73 242.17 106.08 242.17C104.43 242.17 103.33 241.93 102.62 241.45C101.91 240.97 101.47 240.34 101.3 239.57C101.13 238.8 101.04 237.94 101.04 236.97V220.42C101.04 218.32 100.78 216.5 100.27 214.96C99.76 213.42 98.99 212.24 97.97 211.42C96.95 210.6 95.64 210.18 94.04 210.18C92.44 210.18 90.95 210.58 89.73 211.38C88.51 212.18 87.55 213.34 86.87 214.88C86.19 216.42 85.85 218.29 85.85 220.51V237.15C85.85 238.12 85.71 239.01 85.42 239.84C85.13 240.67 84.58 241.29 83.76 241.72C82.93 242.15 81.75 242.3 80.22 242.19C78.74 242.13 77.67 241.85 77.02 241.34C76.37 240.83 75.97 240.19 75.83 239.42C75.69 238.65 75.62 237.84 75.62 236.99V220.44C75.62 218.34 75.38 216.52 74.89 214.98C74.41 213.44 73.65 212.26 72.63 211.44C71.61 210.62 70.3 210.2 68.7 210.2C66.94 210.2 65.44 210.64 64.22 211.52C63 212.4 62.07 213.63 61.45 215.19C60.82 216.76 60.51 218.5 60.51 220.44V237.17C60.51 238.08 60.41 238.93 60.21 239.73C60.01 240.53 59.56 241.14 58.84 241.56C58.13 241.99 56.95 242.2 55.3 242.2V242.18Z"
        fill="#056986" />
    <path
        d="M134.31 242.77C132.89 242.77 131.35 242.61 129.7 242.3C128.05 241.99 126.46 241.53 124.92 240.93C123.38 240.33 122.06 239.62 120.95 238.8C119.84 237.98 119.12 237.05 118.77 236.03C118.6 235.46 118.53 234.91 118.56 234.37C118.59 233.83 118.76 233.26 119.07 232.66C119.38 232.06 119.8 231.45 120.31 230.83C120.82 230.2 121.36 229.85 121.93 229.76C122.5 229.68 123.18 229.86 123.98 230.31C124.78 230.6 125.61 230.97 126.5 231.42C127.38 231.88 128.29 232.33 129.23 232.79C130.17 233.25 131.14 233.62 132.13 233.9C133.12 234.19 134.11 234.33 135.07 234.33C137.17 234.33 138.84 233.98 140.06 233.26C141.28 232.55 141.89 231.54 141.89 230.23C141.89 229.49 141.7 228.85 141.34 228.31C140.97 227.77 140.44 227.3 139.76 226.9C139.08 226.5 138.31 226.16 137.46 225.88C136.61 225.6 135.67 225.31 134.64 225.03C133.62 224.75 132.59 224.46 131.57 224.18C130.09 223.78 128.65 223.3 127.26 222.73C125.87 222.16 124.6 221.42 123.46 220.51C122.32 219.6 121.41 218.45 120.73 217.05C120.05 215.66 119.71 213.93 119.71 211.89C119.71 209.33 120.34 207.15 121.59 205.36C122.84 203.57 124.63 202.19 126.97 201.22C129.3 200.25 132.12 199.77 135.42 199.77C136.56 199.77 137.65 199.85 138.71 200.03C139.76 200.2 140.79 200.44 141.78 200.76C142.77 201.07 143.74 201.46 144.68 201.91C145.62 202.37 146.51 202.88 147.37 203.45C148.79 204.25 149.53 205.17 149.59 206.22C149.65 207.27 149.25 208.4 148.4 209.59C147.77 210.44 147.15 211.03 146.52 211.34C145.89 211.65 145.24 211.64 144.56 211.3C143.65 210.85 142.67 210.36 141.62 209.85C140.57 209.34 139.49 208.88 138.38 208.48C137.27 208.08 136.12 207.88 134.92 207.88C133.72 207.88 132.76 208.05 131.85 208.39C130.94 208.73 130.26 209.22 129.8 209.84C129.34 210.47 129.12 211.18 129.12 211.97C129.12 212.76 129.35 213.42 129.8 213.93C130.25 214.44 130.85 214.87 131.59 215.21C132.33 215.55 133.21 215.85 134.24 216.11C135.26 216.37 136.34 216.61 137.48 216.84C139.07 217.18 140.69 217.61 142.34 218.12C143.99 218.63 145.51 219.34 146.91 220.25C148.3 221.16 149.43 222.37 150.28 223.88C151.13 225.39 151.56 227.34 151.56 229.73C151.56 233.88 150.04 237.1 146.99 239.37C143.95 241.64 139.72 242.78 134.32 242.78L134.31 242.77Z"
        fill="#056986" />
    <path
        d="M173.57 242.26C171.46 242.26 169.6 242.12 167.98 241.83C166.36 241.54 164.96 241.06 163.8 240.38C162.63 239.7 161.67 238.77 160.9 237.61C160.13 236.44 159.58 235.01 159.24 233.3C158.9 231.59 158.73 229.55 158.73 227.16V186.12C158.73 185.1 158.82 184.2 158.99 183.43C159.16 182.66 159.62 182.04 160.36 181.55C161.1 181.07 162.27 180.82 163.86 180.82C165.45 180.82 166.6 181.05 167.32 181.5C168.03 181.96 168.49 182.58 168.69 183.38C168.89 184.18 168.99 185.06 168.99 186.03V226.73C168.99 227.81 169.06 228.71 169.2 229.42C169.34 230.13 169.6 230.7 169.97 231.13C170.34 231.56 170.82 231.85 171.42 232.03C172.02 232.2 172.74 232.29 173.6 232.29C174.34 232.29 175.01 232.38 175.61 232.55C176.21 232.72 176.69 233.15 177.06 233.83C177.43 234.51 177.61 235.62 177.61 237.16C177.61 238.7 177.42 239.92 177.06 240.66C176.69 241.4 176.19 241.85 175.57 242.03C174.94 242.2 174.29 242.29 173.61 242.29L173.57 242.26Z"
        fill="#056986" />
</svg>
