<svg viewBox="0 0 169.48 280.29" xmlns="http://www.w3.org/2000/svg">
    <path
        d="m147.57 87.49h-137.18v53.52h.04c0 .35-.04.7-.04 1.05 0 28.1 30.71 50.88 68.59 50.88 37.88 0 68.59-22.78 68.59-50.88 0-.35-.03-.7-.04-1.05h.04z"
        fill="#0b132a" />
    <rect fill="#0b132a" height="137.18" rx="68.59" width="137.18" x="10.39" y="22.45" />
    <g stroke="#eccc8c" stroke-linecap="round" stroke-width="8">
        <path d="m106.18 186.91v41.67" fill="#eccc8c" stroke-miterlimit="10" />
        <path d="m51.23 186.91v41.67" fill="#eccc8c" stroke-miterlimit="10" />
        <path d="m95.42 233.76 10.63-10.62 10.88 10.88" fill="none" stroke-linejoin="round" />
        <path d="m106.18 234.02v-10.88" fill="none" stroke-linejoin="round" />
        <path d="m41.02 233.76 10.62-10.62 10.88 10.88" fill="none" stroke-linejoin="round" />
        <path d="m51.77 234.02v-10.88" fill="none" stroke-linejoin="round" />
    </g>
    <rect fill="#0b132a" height="22.82" rx="7.67" width="15.34" x="98.65" y="181.28" />
    <rect fill="#0b132a" height="22.82" rx="7.67" width="15.34" x="43.56" y="181.28" />
    <rect fill="#0b132a" height="137.18" rx="68.59" width="137.18" x="10.39" y="22.45" />
    <path
        d="m103.96 27.26c-10.11 5.23-23.05.31-23.05.31s3.46-13.4 13.58-18.62c10.11-5.23 23.05-.31 23.05-.31s-3.46 13.4-13.58 18.62z"
        fill="#0d132a" />
    <path
        d="m92.16 15.85c-2.4 7.55-11.19 11.5-11.19 11.5s-4.89-8.3-2.48-15.85 11.18-11.5 11.18-11.5 4.89 8.3 2.48 15.85z"
        fill="#0d132a" />
    <path
        d="m115.95 113.89c-.14-.27-5.38 1.63-13.82-3.37l-18.09-9.37c-.39-.23-.79-.43-1.2-.6-1.23-.51-2.55-.75-3.86-.73-1.75-.02-3.5.41-5.06 1.33l-18.09 9.37c-8.44 5-13.68 3.1-13.82 3.37-1.6 3.15 4.71 7.24 7.57 9.16l25.78 23.8c1.06.84 2.34 1.23 3.62 1.2 1.28.03 2.56-.37 3.62-1.2l25.78-23.8c2.86-1.92 9.17-6.01 7.57-9.16z"
        fill="#eccc8c" />
    <path
        d="m49.85 123.05 26.12 23.96c1.96 1.08 4.34 1.08 6.31 0l26.12-23.96-25.54 27.4c-2.18 1.74-5.28 1.74-7.46 0l-25.54-27.4z"
        fill="#cc8d20" />
    <path
        d="m79.12 99.82s-.1 0-.14 0c-1.75-.02-3.5.41-5.06 1.33l-18.09 9.37c-8.44 5-13.68 3.1-13.82 3.37-1.6 3.15 4.71 7.24 7.57 9.16l25.78 23.8c1.06.84 2.34 1.23 3.62 1.2h.14v-48.22z"
        fill="#dcad50" opacity=".7" />
    <circle cx="46" cy="83.85" fill="#fff" r="27.57" stroke="#049dcb" stroke-miterlimit="10"
        stroke-width="6" />
    <circle cx="111.95" cy="83.85" fill="#fff" r="27.57" stroke="#049dcb" stroke-miterlimit="10"
        stroke-width="6" />
    <path d="m71.13 95.21s7.39-8.3 15.69 0" fill="none" stroke="#049dcb" stroke-miterlimit="10"
        stroke-width="6" />
    <path
        d="m116.65 67.24c-4.91 0-8.9 3.98-8.9 8.9 0 .96.16 1.89.44 2.76.75-1.62 2.38-2.76 4.28-2.76 2.61 0 4.72 2.11 4.72 4.72 0 1.7-.91 3.18-2.25 4.01.55.11 1.12.17 1.71.17 4.91 0 8.9-3.98 8.9-8.9s-3.98-8.9-8.9-8.9z"
        fill="#15004f" />
    <path
        d="m55.3 67.24c-4.91 0-8.9 3.98-8.9 8.9 0 .96.16 1.89.44 2.76.75-1.62 2.38-2.76 4.28-2.76 2.61 0 4.72 2.11 4.72 4.72 0 1.7-.91 3.18-2.25 4.01.55.11 1.12.17 1.71.17 4.91 0 8.9-3.98 8.9-8.9s-3.98-8.9-8.9-8.9z"
        fill="#15004f" />
    <path
        d="m26.7 30.06c5.29-3.26 18.15-9.81 34.06-8.36 1.61.15 2.89 1.7 2.93 3.57l.11 4.76c.05 1.96-1.28 3.55-2.97 3.56-6.33.04-21.14.54-31.11 4.09-1.42.51-2.98-.23-3.71-1.77l-.5-1.07c-.81-1.74-.29-3.88 1.18-4.78z"
        fill="#056986" />
    <path
        d="m129.39 54.14c-5.73-2.4-19.44-6.89-34.94-3-1.57.39-2.59 2.12-2.35 3.98l.63 4.72c.26 1.94 1.81 3.31 3.49 3.06 6.26-.94 20.97-2.73 31.37-.76 1.48.28 2.91-.68 3.39-2.32l.33-1.13c.53-1.84-.31-3.88-1.91-4.54z"
        fill="#056986" />
    <path
        d="m146.7 71.92c.23-3.56 4.07-5.81 7.2-4.09 10.03 5.52 16.61 21.5 15.44 39.86-1.17 18.37-9.71 33.38-20.36 37.59-3.32 1.31-6.85-1.41-6.62-4.97z"
        fill="#0b132a" />
    <path
        d="m24.86 110.94c0-3.57-3.7-6.06-6.92-4.54-10.36 4.88-17.94 20.41-17.94 38.81s7.58 33.93 17.94 38.8c3.23 1.52 6.92-.97 6.92-4.54z"
        fill="#0b132a" />
</svg>