<svg viewBox="0 0 204.25 273.43" xmlns="http://www.w3.org/2000/svg"><path d="m24.86 110.94c0-3.57-3.7-6.06-6.92-4.54-10.36 4.88-17.94 20.41-17.94 38.81s7.58 33.93 17.94 38.8c3.23 1.52 6.92-.97 6.92-4.54z" fill="#0b132a"/><path d="m169.97 64.04c2.27-3.63 6.99-4.19 8.76-.94 5.68 10.46 2.2 30.27-9.53 48.98-5.36 8.56-11.69 15.66-18.11 20.8-7.62 6.1-15.37 9.43-21.82 9.13-3.7-.17-5.25-4.67-2.98-8.29l22.66-36.15z" fill="#0b132a"/><path d="m147.57 87.49h-137.18v53.52h.04c0 .35-.04.7-.04 1.05 0 28.1 30.71 50.88 68.59 50.88 37.88 0 68.59-22.78 68.59-50.88 0-.35-.03-.7-.04-1.05h.04z" fill="#0b132a"/><rect fill="#0b132a" height="137.18" rx="68.59" width="137.18" x="10.39" y="22.45"/><g stroke-linecap="round"><path d="m106.18 186.91v41.67" fill="#eccc8c" stroke="#eccc8c" stroke-miterlimit="10" stroke-width="8"/><path d="m51.23 186.91v41.67" fill="#eccc8c" stroke="#eccc8c" stroke-miterlimit="10" stroke-width="8"/><path d="m95.42 233.76 10.63-10.62 10.88 10.88" fill="none" stroke="#eccc8c" stroke-linejoin="round" stroke-width="8"/><path d="m106.18 234.02v-10.88" fill="none" stroke="#eccc8c" stroke-linejoin="round" stroke-width="8"/><path d="m41.02 233.76 10.62-10.62 10.88 10.88" fill="none" stroke="#eccc8c" stroke-linejoin="round" stroke-width="8"/><path d="m51.77 234.02v-10.88" fill="none" stroke="#eccc8c" stroke-linejoin="round" stroke-width="8"/></g><rect fill="#0b132a" height="22.82" rx="7.67" width="15.34" x="98.65" y="181.28"/><rect fill="#0b132a" height="22.82" rx="7.67" width="15.34" x="43.56" y="181.28"/><rect fill="#0b132a" height="137.18" rx="68.59" width="137.18" x="10.69" y="22.45"/><path d="m44.39 113.75 5.93 9.3 27.44 26.2h3.57l27.53-26.2 5.3-8.24" fill="#825858"/><path d="m104.39 27.26c-10.11 5.23-23.05.31-23.05.31s3.46-13.4 13.58-18.62c10.11-5.23 23.05-.31 23.05-.31s-3.46 13.4-13.58 18.62z" fill="#0d132a"/><path d="m92.59 15.85c-2.4 7.55-11.19 11.5-11.19 11.5s-4.89-8.3-2.48-15.85 11.18-11.5 11.18-11.5 4.89 8.3 2.48 15.85z" fill="#0d132a"/><path d="m116.25 110.78c-.14-.21-5.38 1.27-13.82-2.62l-18.09-7.3c-.39-.18-.79-.33-1.2-.46-1.23-.4-2.55-.58-3.86-.57-1.75-.02-3.5.32-5.06 1.03l-18.09 7.3c-8.44 3.89-13.68 2.41-13.82 2.62-1.6 2.46 4.71 5.65 7.57 7.14l25.78 18.54c1.06.65 2.34.96 3.62.94 1.28.02 2.56-.29 3.62-.94l25.78-18.54c2.86-1.49 9.17-4.68 7.57-7.14z" fill="#eccc8c"/><path d="m50.01 123.05 26.12 23.96c1.96 1.08 4.34 1.08 6.31 0l26.12-23.96-25.54 27.4c-2.18 1.74-5.28 1.74-7.46 0l-25.54-27.4z" fill="#cc8d20"/><path d="m79.55 99.82s-.1 0-.14 0c-1.75-.02-3.5.32-5.06 1.03l-18.09 7.3c-8.44 3.89-13.68 2.41-13.82 2.62-1.6 2.46 4.71 5.65 7.57 7.14l25.78 18.54c1.06.65 2.34.96 3.62.94h.14z" fill="#dcad50" opacity=".7"/><circle cx="46.3" cy="83.85" fill="#fff" r="27.57" stroke="#049dcb" stroke-miterlimit="10" stroke-width="6"/><circle cx="112.25" cy="83.85" fill="#fff" r="27.57" stroke="#049dcb" stroke-miterlimit="10" stroke-width="6"/><path d="m71.43 95.21s7.39-8.3 15.69 0" fill="none" stroke="#049dcb" stroke-miterlimit="10" stroke-width="6"/><path d="m27.13 30.06c5.29-3.26 18.15-9.81 34.06-8.36 1.61.15 2.89 1.7 2.93 3.57l.11 4.76c.05 1.96-1.28 3.55-2.97 3.56-6.33.04-21.14.54-31.11 4.09-1.42.51-2.98-.23-3.71-1.77l-.5-1.07c-.81-1.74-.29-3.88 1.18-4.78z" fill="#056986"/><path d="m131.97 30.06c-5.29-3.26-18.15-9.81-34.06-8.36-1.61.15-2.89 1.7-2.93 3.57l-.11 4.76c-.05 1.96 1.28 3.55 2.97 3.56 6.33.04 21.14.54 31.11 4.09 1.42.51 2.98-.23 3.71-1.77l.5-1.07c.81-1.74.29-3.88-1.18-4.78z" fill="#056986"/><path d="m104.95 81.23c4.16 0 7.58 3.11 8.1 7.12.51-1.12.8-2.36.8-3.67 0-4.91-3.98-8.9-8.9-8.9s-8.9 3.98-8.9 8.9c0 1.31.29 2.55.8 3.67.52-4.02 3.94-7.12 8.1-7.12z" fill="#15004f"/><path d="m53.2 81.23c4.16 0 7.58 3.11 8.1 7.12.51-1.12.8-2.36.8-3.67 0-4.91-3.98-8.9-8.9-8.9s-8.9 3.98-8.9 8.9c0 1.31.29 2.55.8 3.67.52-4.02 3.94-7.12 8.1-7.12z" fill="#15004f"/><path d="m173.25 51.1s25.41-3.02 17.51 38.3" fill="none" stroke="#c6c6c6" stroke-linecap="round" stroke-miterlimit="10"/><path d="m182.76 46.3s17.87 1.69 15.61 31.62" fill="none" stroke="#c6c6c6" stroke-linecap="round" stroke-miterlimit="10"/><path d="m195.27 46.3s8.75 3.95 8.47 20.05" fill="none" stroke="#c6c6c6" stroke-linecap="round" stroke-miterlimit="10"/></svg>