<svg height="182.08" viewBox="0 0 182.08001 182.08" width="182.08" xmlns="http://www.w3.org/2000/svg"><g transform="translate(22.45)"><rect fill="#0b132a" height="137.17999" rx="68.589996" width="137.17999" y="22.450001"/><path d="m93.57 27.26c-10.11 5.23-23.05.31-23.05.31s3.46-13.4 13.58-18.62c10.11-5.23 23.05-.31 23.05-.31s-3.46 13.4-13.58 18.62z" fill="#0d132a"/><path d="m81.77 15.85c-2.4 7.55-11.19 11.5-11.19 11.5s-4.89-8.3-2.48-15.85c2.41-7.55 11.18-11.5 11.18-11.5s4.89 8.3 2.48 15.85z" fill="#0d132a"/><path d="m105.56 113.89c-.14-.27-5.38 1.63-13.82-3.37l-18.09-9.37c-.39-.23-.79-.43-1.2-.6-1.23-.51-2.55-.75-3.86-.73-1.75-.02-3.5.41-5.06 1.33l-18.09 9.37c-8.44 5-13.68 3.1-13.82 3.37-1.6 3.15 4.71 7.24 7.57 9.16l25.78 23.8c1.06.84 2.34 1.23 3.62 1.2 1.28.03 2.56-.37 3.62-1.2l25.78-23.8c2.86-1.92 9.17-6.01 7.57-9.16z" fill="#eccc8c"/><path d="m39.46 123.05 26.12 23.96c1.96 1.08 4.34 1.08 6.31 0l26.12-23.96-25.54 27.4c-2.18 1.74-5.28 1.74-7.46 0l-25.54-27.4z" fill="#cc8d20"/><path d="m68.73 99.82s-.1 0-.14 0c-1.75-.02-3.5.41-5.06 1.33l-18.09 9.37c-8.44 5-13.68 3.1-13.82 3.37-1.6 3.15 4.71 7.24 7.57 9.16l25.78 23.8c1.06.84 2.34 1.23 3.62 1.2h.14v-48.22z" fill="#dcad50" opacity=".7"/><g stroke="#049dcb" stroke-miterlimit="10" stroke-width="6"><circle cx="35.610001" cy="83.849998" fill="#fff" r="27.57"/><circle cx="101.56" cy="83.849998" fill="#fff" r="27.57"/><path d="m60.74 95.21s7.39-8.3 15.69 0" fill="none"/></g><path d="m94.41 78.59c-4.91 0-8.9 3.98-8.9 8.9 0 .96.16 1.89.44 2.76.75-1.62 2.38-2.76 4.28-2.76 2.61 0 4.72 2.11 4.72 4.72 0 1.7-.91 3.18-2.25 4.01.55.11 1.12.17 1.71.17 4.91 0 8.9-3.98 8.9-8.9s-3.98-8.9-8.9-8.9z" fill="#15004f"/><path d="m43.06 78.59c-4.91 0-8.9 3.98-8.9 8.9 0 .96.16 1.89.44 2.76.75-1.62 2.38-2.76 4.28-2.76 2.61 0 4.72 2.11 4.72 4.72 0 1.7-.91 3.18-2.25 4.01.55.11 1.12.17 1.71.17 4.91 0 8.9-3.98 8.9-8.9s-3.98-8.9-8.9-8.9z" fill="#15004f"/><path d="m16.31 42.62c5.29-3.26 18.15-9.81 34.06-8.36 1.61.15 2.89 1.7 2.93 3.57l.11 4.76c.05 1.96-1.28 3.55-2.97 3.56-6.33.04-21.14.54-31.11 4.09-1.42.51-2.98-.23-3.71-1.77l-.5-1.07c-.81-1.74-.29-3.88 1.18-4.78z" fill="#056986"/><path d="m121.15 42.62c-5.29-3.26-18.15-9.81-34.06-8.36-1.61.15-2.89 1.7-2.93 3.57l-.11 4.76c-.05 1.96 1.28 3.55 2.97 3.56 6.33.04 21.14.54 31.11 4.09 1.42.51 2.98-.23 3.71-1.77l.5-1.07c.81-1.74.29-3.88-1.18-4.78z" fill="#056986"/></g></svg>