<?xml version="1.0" encoding="UTF-8"?>
<!-- Generated by Pixelmator Pro 3.1.1 -->
<svg width="137" height="159" viewBox="0 0 137 159" xmlns="http://www.w3.org/2000/svg" xmlns:xlink="http://www.w3.org/1999/xlink">
    <g id="Avatare">
        <g id="Group">
            <path id="Path" fill="#0b132a" stroke="none" d="M 68.589996 21.820007 L 68.589996 21.820007 C 106.471214 21.820007 137.179993 52.528793 137.179993 90.410004 L 137.179993 90.410004 C 137.179993 128.291199 106.471214 159 68.589996 159 L 68.589996 159 C 30.70879 159 0 128.291199 0 90.410004 L 0 90.410004 C 0 52.528793 30.70879 21.820007 68.589996 21.820007 Z"/>
            <path id="path1" fill="#0d132a" stroke="none" d="M 93.57 26.630005 C 83.459999 31.860001 70.519997 26.940002 70.519997 26.940002 C 70.519997 26.940002 73.980003 13.539993 84.099998 8.320007 C 94.209999 3.089996 107.150002 8.009995 107.150002 8.009995 C 107.150002 8.009995 103.690002 21.410004 93.57 26.630005 Z"/>
            <path id="path2" fill="#0d132a" stroke="none" d="M 81.769997 15.220001 C 79.370003 22.770004 70.580002 26.720001 70.580002 26.720001 C 70.580002 26.720001 65.690002 18.419998 68.099998 10.869995 C 70.510002 3.320007 79.279999 -0.630005 79.279999 -0.630005 C 79.279999 -0.630005 84.169998 7.669998 81.760002 15.220001 Z"/>
            <path id="path3" fill="#eccc8c" stroke="none" d="M 105.559998 113.259995 C 105.419998 112.990005 100.18 114.889999 91.739998 109.889999 L 73.650002 100.520004 C 73.260002 100.289993 72.860001 100.089996 72.449997 99.919998 C 71.220001 99.410004 69.900002 99.169998 68.589996 99.190002 C 66.839996 99.169998 65.089996 99.600006 63.529999 100.520004 L 45.439999 109.889999 C 37 114.889999 31.76 112.990005 31.620001 113.259995 C 30.02 116.410004 36.330002 120.5 39.189999 122.419998 L 64.970001 146.220001 C 66.029999 147.059998 67.309998 147.449997 68.589996 147.419998 C 69.870003 147.449997 71.150002 147.049988 72.209999 146.220001 L 97.989998 122.419998 C 100.849998 120.5 107.160004 116.410004 105.559998 113.259995 Z"/>
            <path id="path4" fill="#cc8d20" stroke="none" d="M 39.459999 122.419998 L 65.580002 146.37999 C 67.540001 147.459991 69.919998 147.459991 71.889999 146.37999 L 98.010002 122.419998 L 72.470001 149.819992 C 70.290001 151.559998 67.190002 151.559998 65.010002 149.819992 L 39.470001 122.419998 Z"/>
            <g id="g1" opacity="0.7">
                <path id="path5" fill="#dcad50" stroke="none" d="M 68.730003 99.190002 C 68.730003 99.190002 68.629997 99.190002 68.589996 99.190002 C 66.839996 99.169998 65.089996 99.600006 63.529999 100.520004 L 45.439999 109.889999 C 37 114.889999 31.76 112.990005 31.620001 113.259995 C 30.02 116.410004 36.330002 120.5 39.189999 122.419998 L 64.970001 146.220001 C 66.029999 147.059998 67.309998 147.449997 68.589996 147.419998 C 68.639999 147.419998 68.690002 147.419998 68.730003 147.419998 L 68.730003 99.199997 Z"/>
            </g>
            <g id="g2">
                <path id="path6" fill="#ffffff" stroke="#049dcb" stroke-width="6" stroke-linecap="round" stroke-linejoin="round" d="M 63.18 83.220001 C 63.18 98.446487 50.836491 110.789993 35.610001 110.789993 C 20.383509 110.789993 8.04 98.446487 8.04 83.220001 C 8.04 67.993515 20.383509 55.650002 35.610001 55.650002 C 50.836491 55.650002 63.18 67.993515 63.18 83.220001 Z"/>
                <path id="path7" fill="#ffffff" stroke="#049dcb" stroke-width="6" stroke-linecap="round" stroke-linejoin="round" d="M 129.130005 83.220001 C 129.130005 98.446487 116.786491 110.789993 101.559998 110.789993 C 86.333511 110.789993 73.989998 98.446487 73.989998 83.220001 C 73.989998 67.993515 86.333511 55.650002 101.559998 55.650002 C 116.786491 55.650002 129.130005 67.993515 129.130005 83.220001 Z"/>
                <path id="path8" fill="none" stroke="#049dcb" stroke-width="6" stroke-linecap="round" stroke-linejoin="round" d="M 60.740002 94.580002 C 60.740002 94.580002 68.129997 86.280006 76.43 94.580002"/>
            </g>
            <g id="g3">
                <path id="path9" fill="#15004f" stroke="none" d="M 94.410004 77.959999 C 89.5 77.959999 85.510002 81.940002 85.510002 86.860001 C 85.510002 87.82 85.669998 88.75 85.949997 89.620003 C 86.699997 88 88.330002 86.860001 90.230003 86.860001 C 92.839996 86.860001 94.949997 88.970001 94.949997 91.580002 C 94.949997 93.280006 94.040001 94.760002 92.699997 95.589996 C 93.25 95.699997 93.82 95.759995 94.410004 95.759995 C 99.32 95.759995 103.309998 91.780006 103.309998 86.860001 C 103.309998 81.940002 99.330002 77.959999 94.410004 77.959999 Z"/>
                <path id="path10" fill="#15004f" stroke="none" d="M 43.060001 77.959999 C 38.150002 77.959999 34.16 81.940002 34.16 86.860001 C 34.16 87.82 34.32 88.75 34.599998 89.620003 C 35.349998 88 36.98 86.860001 38.880001 86.860001 C 41.490002 86.860001 43.599998 88.970001 43.599998 91.580002 C 43.599998 93.280006 42.689999 94.760002 41.349998 95.589996 C 41.900002 95.699997 42.470001 95.759995 43.060001 95.759995 C 47.970001 95.759995 51.959999 91.780006 51.959999 86.860001 C 51.959999 81.940002 47.98 77.959999 43.060001 77.959999 Z"/>
            </g>
            <g id="g4">
                <path id="path11" fill="#056986" stroke="none" d="M 16.309999 41.989998 C 21.6 38.730003 34.459999 32.18 50.369999 33.629997 C 51.98 33.779999 53.259998 35.330002 53.299999 37.200005 L 53.41 41.959999 C 53.459999 43.919998 52.130001 45.510002 50.439999 45.520004 C 44.110001 45.559998 29.299999 46.059998 19.33 49.610001 C 17.91 50.120003 16.35 49.379997 15.62 47.840004 L 15.12 46.770004 C 14.31 45.029999 14.83 42.889999 16.299999 41.989998 Z"/>
                <path id="path12" fill="#056986" stroke="none" d="M 121.150002 41.989998 C 115.860001 38.730003 103 32.18 87.089996 33.629997 C 85.480003 33.779999 84.199997 35.330002 84.160004 37.200005 L 84.050003 41.959999 C 84 43.919998 85.330002 45.510002 87.019997 45.520004 C 93.349998 45.559998 108.160004 46.059998 118.129997 49.610001 C 119.550003 50.120003 121.110001 49.379997 121.839996 47.840004 L 122.339996 46.770004 C 123.150002 45.029999 122.629997 42.889999 121.160004 41.989998 Z"/>
            </g>
        </g>
    </g>
</svg>
