<?xml version="1.0" encoding="UTF-8" standalone="no"?>
<svg
   id="Ebene_2"
   viewBox="0 0 204.25 273.43"
   version="1.1"
   sodipodi:docname="Element 29 Kopie.svg"
   inkscape:version="1.2.2 (b0a84865, 2022-12-01)"
   xmlns:inkscape="http://www.inkscape.org/namespaces/inkscape"
   xmlns:sodipodi="http://sodipodi.sourceforge.net/DTD/sodipodi-0.dtd"
   xmlns="http://www.w3.org/2000/svg"
   xmlns:svg="http://www.w3.org/2000/svg">
  <sodipodi:namedview
     id="namedview88"
     pagecolor="#ffffff"
     bordercolor="#000000"
     borderopacity="0.25"
     inkscape:showpageshadow="2"
     inkscape:pageopacity="0.0"
     inkscape:pagecheckerboard="0"
     inkscape:deskcolor="#d1d1d1"
     showgrid="false"
     inkscape:zoom="3.7559888"
     inkscape:cx="94.648844"
     inkscape:cy="194.75564"
     inkscape:window-width="1387"
     inkscape:window-height="1205"
     inkscape:window-x="0"
     inkscape:window-y="25"
     inkscape:window-maximized="0"
     inkscape:current-layer="g84" />
  <defs
     id="defs4">
    <style
       id="style2">.cls-1,.cls-2,.cls-3,.cls-4{stroke-miterlimit:10;}.cls-1,.cls-3,.cls-5{fill:none;}.cls-1,.cls-4{stroke:#049dcb;stroke-width:6px;}.cls-6,.cls-2{fill:#eccc8c;}.cls-7{fill:#825858;}.cls-8{fill:#cc8d20;}.cls-9{fill:#dcad50;}.cls-10{fill:#0d132a;}.cls-11{fill:#0b132a;}.cls-12{fill:#056986;}.cls-13{fill:#15004f;}.cls-2,.cls-3,.cls-5{stroke-linecap:round;}.cls-2,.cls-5{stroke:#eccc8c;stroke-width:8px;}.cls-3{stroke:#c6c6c6;}.cls-5{stroke-linejoin:round;}.cls-14{opacity:.7;}.cls-4{fill:#fff;}.cls-15{fill:#afafaf;font-family:MyriadPro-Regular, 'Myriad Pro';font-size:12px;}</style>
  </defs>
  <g
     id="Avatare">
    <g
       id="g84">
      <g
         id="g72">
        <path
           class="cls-11"
           d="M24.86,110.94c0-3.57-3.7-6.06-6.92-4.54C7.58,111.28,0,126.81,0,145.21s7.58,33.93,17.94,38.8c3.23,1.52,6.92-.97,6.92-4.54V110.94Z"
           id="path6" />
        <path
           class="cls-11"
           d="M169.97,64.04c2.27-3.63,6.99-4.19,8.76-.94,5.68,10.46,2.2,30.27-9.53,48.98-5.36,8.56-11.69,15.66-18.11,20.8-7.62,6.1-15.37,9.43-21.82,9.13-3.7-.17-5.25-4.67-2.98-8.29l22.66-36.15,21.02-33.53Z"
           id="path8" />
        <path
           class="cls-11"
           d="M147.57,87.49H10.39v53.52h.04c0,.35-.04,.7-.04,1.05h0c0,28.1,30.71,50.88,68.59,50.88h0c37.88,0,68.59-22.78,68.59-50.88h0c0-.35-.03-.7-.04-1.05h.04v-53.52Z"
           id="path10" />
        <rect
           class="cls-11"
           x="10.39"
           y="22.45"
           width="137.18"
           height="137.18"
           rx="68.59"
           ry="68.59"
           id="rect12" />
        <g
           id="g34">
          <line
             class="cls-2"
             x1="106.18"
             y1="186.91"
             x2="106.18"
             y2="228.58"
             id="line14" />
          <line
             class="cls-2"
             x1="51.23"
             y1="186.91"
             x2="51.23"
             y2="228.58"
             id="line16" />
          <g
             id="g22">
            <polyline
               class="cls-5"
               points="95.42 233.76 106.05 223.14 116.93 234.02"
               id="polyline18" />
            <line
               class="cls-5"
               x1="106.18"
               y1="234.02"
               x2="106.18"
               y2="223.14"
               id="line20" />
          </g>
          <g
             id="g28">
            <polyline
               class="cls-5"
               points="41.02 233.76 51.64 223.14 62.52 234.02"
               id="polyline24" />
            <line
               class="cls-5"
               x1="51.77"
               y1="234.02"
               x2="51.77"
               y2="223.14"
               id="line26" />
          </g>
          <rect
             class="cls-11"
             x="98.65"
             y="181.28"
             width="15.34"
             height="22.82"
             rx="7.67"
             ry="7.67"
             id="rect30" />
          <rect
             class="cls-11"
             x="43.56"
             y="181.28"
             width="15.34"
             height="22.82"
             rx="7.67"
             ry="7.67"
             id="rect32" />
        </g>
        <g
           id="g70">
          <rect
             class="cls-11"
             x="10.69"
             y="22.45"
             width="137.18"
             height="137.18"
             rx="68.59"
             ry="68.59"
             id="rect36" />
          <polyline
             class="cls-7"
             points="44.39 113.75 50.32 123.05 77.76 149.25 81.33 149.25 108.86 123.05 114.16 114.81"
             id="polyline38" />
          <path
             class="cls-10"
             d="M104.39,27.26c-10.11,5.23-23.05,.31-23.05,.31,0,0,3.46-13.4,13.58-18.62,10.11-5.23,23.05-.31,23.05-.31,0,0-3.46,13.4-13.58,18.62Z"
             id="path40" />
          <path
             class="cls-10"
             d="M92.59,15.85c-2.4,7.55-11.19,11.5-11.19,11.5,0,0-4.89-8.3-2.48-15.85S90.1,0,90.1,0c0,0,4.89,8.3,2.48,15.85Z"
             id="path42" />
          <path
             class="cls-6"
             d="M116.25,110.78c-.14-.21-5.38,1.27-13.82-2.62l-18.09-7.3c-.39-.18-.79-.33-1.2-.46-1.23-.4-2.55-.58-3.86-.57-1.75-.02-3.5,.32-5.06,1.03l-18.09,7.3c-8.44,3.89-13.68,2.41-13.82,2.62-1.6,2.46,4.71,5.65,7.57,7.14l25.78,18.54c1.06,.65,2.34,.96,3.62,.94,1.28,.02,2.56-.29,3.62-.94l25.78-18.54c2.86-1.49,9.17-4.68,7.57-7.14Z"
             id="path44" />
          <path
             class="cls-8"
             d="M50.01,123.05l26.12,23.96c1.96,1.08,4.34,1.08,6.31,0l26.12-23.96-25.54,27.4c-2.18,1.74-5.28,1.74-7.46,0l-25.54-27.4Z"
             id="path46" />
          <g
             class="cls-14"
             id="g50">
            <path
               class="cls-9"
               d="M79.55,99.82s-.1,0-.14,0c-1.75-.02-3.5,.32-5.06,1.03l-18.09,7.3c-8.44,3.89-13.68,2.41-13.82,2.62-1.6,2.46,4.71,5.65,7.57,7.14l25.78,18.54c1.06,.65,2.34,.96,3.62,.94,.05,0,.1,0,.14,0v-37.57Z"
               id="path48" />
          </g>
          <g
             id="g58">
            <circle
               class="cls-4"
               cx="46.3"
               cy="83.85"
               r="27.57"
               id="circle52" />
            <circle
               class="cls-4"
               cx="112.25"
               cy="83.85"
               r="27.57"
               id="circle54" />
            <path
               class="cls-1"
               d="M71.43,95.21s7.39-8.3,15.69,0"
               id="path56" />
          </g>
          <g
             id="g64">
            <path
               class="cls-12"
               d="M27.13,30.06c5.29-3.26,18.15-9.81,34.06-8.36,1.61,.15,2.89,1.7,2.93,3.57l.11,4.76c.05,1.96-1.28,3.55-2.97,3.56-6.33,.04-21.14,.54-31.11,4.09-1.42,.51-2.98-.23-3.71-1.77l-.5-1.07c-.81-1.74-.29-3.88,1.18-4.78Z"
               id="path60" />
            <path
               class="cls-12"
               d="M131.97,30.06c-5.29-3.26-18.15-9.81-34.06-8.36-1.61,.15-2.89,1.7-2.93,3.57l-.11,4.76c-.05,1.96,1.28,3.55,2.97,3.56,6.33,.04,21.14,.54,31.11,4.09,1.42,.51,2.98-.23,3.71-1.77l.5-1.07c.81-1.74,.29-3.88-1.18-4.78Z"
               id="path62" />
          </g>
          <path
             class="cls-13"
             d="M104.95,81.23c4.16,0,7.58,3.11,8.1,7.12,.51-1.12,.8-2.36,.8-3.67,0-4.91-3.98-8.9-8.9-8.9s-8.9,3.98-8.9,8.9c0,1.31,.29,2.55,.8,3.67,.52-4.02,3.94-7.12,8.1-7.12Z"
             id="path66" />
          <path
             class="cls-13"
             d="M53.2,81.23c4.16,0,7.58,3.11,8.1,7.12,.51-1.12,.8-2.36,.8-3.67,0-4.91-3.98-8.9-8.9-8.9s-8.9,3.98-8.9,8.9c0,1.31,.29,2.55,.8,3.67,.52-4.02,3.94-7.12,8.1-7.12Z"
             id="path68" />
        </g>
      </g>
      <path
         class="cls-3"
         d="M173.25,51.1s25.41-3.02,17.51,38.3"
         id="path78" />
      <path
         class="cls-3"
         d="M182.76,46.3s17.87,1.69,15.61,31.62"
         id="path80" />
      <path
         class="cls-3"
         d="M195.27,46.3s8.75,3.95,8.47,20.05"
         id="path82" />
    </g>
  </g>
</svg>
