<svg width="178" height="63" viewBox="0 0 178 63" fill="none" xmlns="http://www.w3.org/2000/svg">
<path d="M36.86 62.09C35.15 62.09 33.92 61.78 33.15 61.15C32.38 60.52 31.97 59.67 31.91 58.59L32.51 55.77C32.05 56.51 31.29 57.38 30.21 58.37C29.13 59.37 27.72 60.25 25.99 61.02C24.25 61.79 22.14 62.17 19.63 62.17C16.96 62.17 14.44 61.62 12.08 60.51C9.72 59.4 7.63 57.87 5.81 55.9C3.99 53.94 2.57 51.69 1.54 49.16C0.52 46.63 0 43.91 0 41.01C0 38.11 0.51 35.59 1.54 33.12C2.56 30.65 4 28.44 5.85 26.51C7.7 24.58 9.79 23.05 12.12 21.94C14.45 20.83 16.95 20.28 19.63 20.28C21.9 20.28 23.85 20.59 25.48 21.22C27.1 21.85 28.48 22.63 29.62 23.57C30.76 24.51 31.7 25.49 32.44 26.51L32.01 24.04C31.95 22.79 32.32 21.84 33.12 21.18C33.92 20.53 35.2 20.2 36.96 20.2C38.5 20.2 39.62 20.44 40.33 20.93C41.04 21.41 41.48 22.08 41.65 22.93C41.82 23.78 41.91 24.72 41.91 25.75V56.9C41.91 57.87 41.82 58.75 41.65 59.55C41.48 60.35 41.04 60.97 40.33 61.43C39.62 61.89 38.47 62.11 36.87 62.11L36.86 62.09ZM21.16 52.19C23.04 52.19 24.76 51.71 26.32 50.74C27.88 49.77 29.12 48.45 30.03 46.77C30.94 45.09 31.4 43.23 31.4 41.18C31.4 39.02 30.93 37.11 29.99 35.46C29.05 33.81 27.78 32.5 26.19 31.54C24.6 30.57 22.86 30.09 20.98 30.09C18.88 30.09 17 30.59 15.35 31.58C13.7 32.58 12.41 33.91 11.47 35.59C10.53 37.27 10.06 39.16 10.06 41.26C10.06 43.36 10.54 45.16 11.51 46.81C12.48 48.46 13.8 49.77 15.48 50.73C17.16 51.7 19.05 52.18 21.15 52.18L21.16 52.19Z" fill="#056986"/>
<path d="M55.3 62.18C53.71 62.18 52.55 61.95 51.84 61.5C51.13 61.05 50.69 60.42 50.52 59.62C50.35 58.82 50.26 57.97 50.26 57.06V25.23C50.26 24.26 50.36 23.41 50.56 22.67C50.76 21.93 51.21 21.33 51.93 20.88C52.64 20.42 53.82 20.2 55.47 20.2C57.12 20.2 58.33 20.54 59.1 21.22C59.87 21.9 60.25 23.01 60.25 24.55L59.48 26.85C59.76 26.22 60.25 25.54 60.93 24.8C61.61 24.06 62.45 23.32 63.45 22.58C64.44 21.84 65.57 21.24 66.82 20.79C68.07 20.33 69.38 20.11 70.75 20.11C72.63 20.11 74.35 20.42 75.91 21.05C77.47 21.68 78.87 22.59 80.09 23.78C81.31 24.97 82.38 26.43 83.29 28.13C84.26 26.65 85.34 25.3 86.53 24.08C87.72 22.86 89.12 21.89 90.71 21.18C92.3 20.47 94.09 20.11 96.09 20.11C99.39 20.11 102.16 20.94 104.41 22.59C106.66 24.24 108.35 26.59 109.49 29.63C110.63 32.67 111.2 36.3 111.2 40.51V57.06C111.2 58.03 111.11 58.89 110.94 59.66C110.77 60.43 110.33 61.04 109.62 61.49C108.91 61.95 107.73 62.17 106.08 62.17C104.43 62.17 103.33 61.93 102.62 61.45C101.91 60.97 101.47 60.34 101.3 59.57C101.13 58.8 101.04 57.94 101.04 56.97V40.42C101.04 38.32 100.78 36.5 100.27 34.96C99.76 33.42 98.99 32.24 97.97 31.42C96.95 30.6 95.64 30.18 94.04 30.18C92.44 30.18 90.95 30.58 89.73 31.38C88.51 32.18 87.55 33.34 86.87 34.88C86.19 36.42 85.85 38.29 85.85 40.51V57.15C85.85 58.12 85.71 59.01 85.42 59.84C85.13 60.67 84.58 61.29 83.76 61.72C82.93 62.15 81.75 62.3 80.22 62.19C78.74 62.13 77.67 61.85 77.02 61.34C76.37 60.83 75.97 60.19 75.83 59.42C75.69 58.65 75.62 57.84 75.62 56.99V40.44C75.62 38.34 75.38 36.52 74.89 34.98C74.41 33.44 73.65 32.26 72.63 31.44C71.61 30.62 70.3 30.2 68.7 30.2C66.94 30.2 65.44 30.64 64.22 31.52C63 32.4 62.07 33.63 61.45 35.19C60.82 36.76 60.51 38.5 60.51 40.44V57.17C60.51 58.08 60.41 58.93 60.21 59.73C60.01 60.53 59.56 61.14 58.84 61.56C58.13 61.99 56.95 62.2 55.3 62.2V62.18Z" fill="#056986"/>
<path d="M134.31 62.77C132.89 62.77 131.35 62.61 129.7 62.3C128.05 61.99 126.46 61.53 124.92 60.93C123.38 60.33 122.06 59.62 120.95 58.8C119.84 57.98 119.12 57.05 118.77 56.03C118.6 55.46 118.53 54.91 118.56 54.37C118.59 53.83 118.76 53.26 119.07 52.66C119.38 52.06 119.8 51.45 120.31 50.83C120.82 50.2 121.36 49.85 121.93 49.76C122.5 49.68 123.18 49.86 123.98 50.31C124.78 50.6 125.61 50.97 126.5 51.42C127.38 51.88 128.29 52.33 129.23 52.79C130.17 53.25 131.14 53.62 132.13 53.9C133.12 54.19 134.11 54.33 135.07 54.33C137.17 54.33 138.84 53.98 140.06 53.26C141.28 52.55 141.89 51.54 141.89 50.23C141.89 49.49 141.7 48.85 141.34 48.31C140.97 47.77 140.44 47.3 139.76 46.9C139.08 46.5 138.31 46.16 137.46 45.88C136.61 45.6 135.67 45.31 134.64 45.03C133.62 44.75 132.59 44.46 131.57 44.18C130.09 43.78 128.65 43.3 127.26 42.73C125.87 42.16 124.6 41.42 123.46 40.51C122.32 39.6 121.41 38.45 120.73 37.05C120.05 35.66 119.71 33.93 119.71 31.89C119.71 29.33 120.34 27.15 121.59 25.36C122.84 23.57 124.63 22.19 126.97 21.22C129.3 20.25 132.12 19.77 135.42 19.77C136.56 19.77 137.65 19.85 138.71 20.03C139.76 20.2 140.79 20.44 141.78 20.76C142.77 21.07 143.74 21.46 144.68 21.91C145.62 22.37 146.51 22.88 147.37 23.45C148.79 24.25 149.53 25.17 149.59 26.22C149.65 27.27 149.25 28.4 148.4 29.59C147.77 30.44 147.15 31.03 146.52 31.34C145.89 31.65 145.24 31.64 144.56 31.3C143.65 30.85 142.67 30.36 141.62 29.85C140.57 29.34 139.49 28.88 138.38 28.48C137.27 28.08 136.12 27.88 134.92 27.88C133.72 27.88 132.76 28.05 131.85 28.39C130.94 28.73 130.26 29.22 129.8 29.84C129.34 30.47 129.12 31.18 129.12 31.97C129.12 32.76 129.35 33.42 129.8 33.93C130.25 34.44 130.85 34.87 131.59 35.21C132.33 35.55 133.21 35.85 134.24 36.11C135.26 36.37 136.34 36.61 137.48 36.84C139.07 37.18 140.69 37.61 142.34 38.12C143.99 38.63 145.51 39.34 146.91 40.25C148.3 41.16 149.43 42.37 150.28 43.88C151.13 45.39 151.56 47.34 151.56 49.73C151.56 53.88 150.04 57.1 146.99 59.37C143.95 61.64 139.72 62.78 134.32 62.78L134.31 62.77Z" fill="#056986"/>
<path d="M173.57 62.26C171.46 62.26 169.6 62.12 167.98 61.83C166.36 61.54 164.96 61.06 163.8 60.38C162.63 59.7 161.67 58.77 160.9 57.61C160.13 56.44 159.58 55.01 159.24 53.3C158.9 51.59 158.73 49.55 158.73 47.16V6.12C158.73 5.1 158.82 4.19999 158.99 3.42999C159.16 2.65999 159.62 2.04 160.36 1.55C161.1 1.07 162.27 0.820007 163.86 0.820007C165.45 0.820007 166.6 1.05 167.32 1.5C168.03 1.96 168.49 2.58 168.69 3.38C168.89 4.18 168.99 5.06 168.99 6.03V46.73C168.99 47.81 169.06 48.71 169.2 49.42C169.34 50.13 169.6 50.7 169.97 51.13C170.34 51.56 170.82 51.85 171.42 52.03C172.02 52.2 172.74 52.29 173.6 52.29C174.34 52.29 175.01 52.38 175.61 52.55C176.21 52.72 176.69 53.15 177.06 53.83C177.43 54.51 177.61 55.62 177.61 57.16C177.61 58.7 177.42 59.92 177.06 60.66C176.69 61.4 176.19 61.85 175.57 62.03C174.94 62.2 174.29 62.29 173.61 62.29L173.57 62.26Z" fill="#056986"/>
</svg>
